<svg id="Layer_1" xmlns="http://www.w3.org/2000/svg" viewBox="0 0 345.8 198.67"><defs><style>.cls-1{fill:#febf10;}.cls-2{fill:#1bbaed;}.cls-3{fill:#263475;}.cls-4{fill:#5fad46;}</style></defs><title>dotopen_logo01</title><circle class="cls-1" cx="73.2" cy="8.04" r="8.03"></circle><path class="cls-1" d="M149.88,147.37a.74.74,0,0,0,.45-1.31c-7.51-6.2-22.07-9.67-34.32-7.06-18.29,4.08-27.71,16.19-31.84,27.57a.81.81,0,0,0,1.46.69,32.74,32.74,0,0,1,15.27-13.43c.41-.18.69.49.32.74C84.51,166,79.65,200.65,94.28,220.21c.84,1,2.19.41,1.7-.75-5.72-13.44-3.52-38.24,7.61-51.8C107.89,162.79,120.13,147.71,149.88,147.37Z" transform="translate(-46.66 -119.21)"></path><circle class="cls-2" cx="167.38" cy="52.99" r="8.03"></circle><path class="cls-2" d="M201.84,205.73a.73.73,0,0,0,1.38.12c4.15-8.81,3.91-23.78-1.65-35-8.49-16.71-22.55-22.84-34.6-24a.81.81,0,0,0-.31,1.59,32.7,32.7,0,0,1,16.79,11.46c.28.36-.3.79-.64.5-15.22-13.36-50-9.48-65.31,9.53-.79,1.07.14,2.22,1.15,1.46,11.61-8.87,36.18-12.88,52.08-5.45C176.5,168.87,194.15,177,201.84,205.73Z" transform="translate(-46.66 -119.21)"></path><circle class="cls-3" cx="68.41" cy="169.95" r="8.03"></circle><path class="cls-3" d="M99.37,257.12a.73.73,0,0,0-1,.91c3.47,9.1,14.42,19.31,26.36,23.09,17.92,5.48,32.1-.4,41.3-8.26a.82.82,0,0,0-.93-1.33,32.79,32.79,0,0,1-19.9,4.15c-.45-.06-.36-.77.08-.81,20.18-1.7,41.5-29.43,38.44-53.66-.23-1.31-1.7-1.43-1.85-.19-1.66,14.52-15.82,35-32.19,41.3C143.5,264.43,125.41,271.51,99.37,257.12Z" transform="translate(-46.66 -119.21)"></path><circle class="cls-4" cx="8.04" cy="88.74" r="8.03"></circle><path class="cls-4" d="M80.38,183.19a.74.74,0,0,0-1.19-.71c-7.6,6.09-14,19.65-13.89,32.17.29,18.74,10.23,30.42,20.54,36.77a.81.81,0,0,0,1-1.29,32.73,32.73,0,0,1-10.06-17.67c-.09-.44.62-.58.8-.16,7.81,18.68,40.74,30.46,62.86,20.11,1.18-.62.85-2.06-.39-1.82-14.33,2.88-38.16-4.31-49.18-18C87,227.43,74.67,212.39,80.38,183.19Z" transform="translate(-46.66 -119.21)"></path><path class="cls-3" d="M211.71,236.31c4-8.5,18.34-35.46,28.47-39.18,5.69-2.38,11.59,1.31,14.94,5.84,6.56,8.86,2.89,23.34-.5,32.78-3.13,8.72-13.43,23.73-23.12,26.92a63.07,63.07,0,0,0,13.17-6.74c13-9.7,26.5-28.72,31.1-36.92,2-1.77,4.87-1.14,4.07,2-3.51,8.46-20.29,31.56-33.55,40-17.47,11.1-32.69,7.1-42.13,2.61a240.39,240.39,0,0,0-8.44,25.74c-1.15,4.38-2.17,8.79-3,13.23-.81,4.16-1.19,8.4-2,12.54a3.43,3.43,0,0,1-1.16,2.22c-1.91,1.4-5.32,0-7-1.12a7,7,0,0,1-3.07-6.84c1.21-8.44,7.14-27.75,14.41-52,4.24-14.08,9.55-27.81,14.34-41.71l6.84-19.83a12.38,12.38,0,0,1,1.55-3.36c1.42-1.93,3.82-2.22,6.05-1.92,2.07.29,5.44,1.61,4.57,4.35C225.14,201.46,214.88,228.06,211.71,236.31ZM206,259c-.29.6,5.47,1.27,6.91,1.26a22.73,22.73,0,0,0,6.51-.89c13.42-4,21.44-19.52,25.63-31.88a54,54,0,0,0,3.26-16.52c0-2.48.16-5.83-1.68-7.7-4.91-5-8.94.61-11.28,3.49a103.67,103.67,0,0,0-8.11,12.09c-6.47,10.8-12.25,22-17.86,33.29C208.25,254.38,207.13,256.67,206,259Z" transform="translate(-46.66 -119.21)"></path><path class="cls-3" d="M273.72,243.09a33.53,33.53,0,0,0-2,9.39c-.1,5,2.29,10.38,8.12,11,16.63,1.68,37.33-29.38,44.94-39.21,1.91-2.15,4.4-1.48,4.61.63-5.48,11.39-20.83,34.42-35.71,42.6-10.33,5.64-27.88,1-32.31-10.79-6.82-18.26,13.18-48.42,27.9-55.72,12.09-6,24.35,3,20.22,12.6C305.91,222,287.93,237,273.72,243.09Zm2.89-7.29c15.75-8.9,34.39-25.09,26.56-29.2C298.54,204.38,284.31,220,276.61,235.8Z" transform="translate(-46.66 -119.21)"></path><path class="cls-3" d="M323.83,248.42s27.5-43.91,41.27-49.32A11.06,11.06,0,0,1,377.47,202c3.06,3.66,2,8.54.49,12.62-1.3,3.45-2.59,6.89-3.85,10.36-2.6,7.22-5.22,14.46-7.24,21.86-.78,2.85-4.45,13.36-.46,15.38,3.68,1.87,15.73-7.84,22.93-21.1.36-.67,1.33-1.93,2.22-1.37s1,2.41.74,3.41a19.36,19.36,0,0,1-1.42,3.35,48.66,48.66,0,0,1-4.58,7.11,59.9,59.9,0,0,1-10.63,11.29,13.15,13.15,0,0,1-1.53,1.07c-7.82,4.63-19.65.28-21-10.6-1.83-15.8,18.58-49.83,13.46-49.64-8.85.1-42.43,52.94-44,58.36-2.25,5.83-14.48.5-13.74-4,1.42-4.89,17.27-50.8,20.75-56.54,2.19-4,11.31-.27,9.66,3.92C337.37,212.4,323.83,248.42,323.83,248.42Z" transform="translate(-46.66 -119.21)"></path><path class="cls-3" d="M208.4,228.92c.1-1.39,2.23-19.88,1.91-17.74-.52,3.54-3.42,8.26-4.25,10.36a158.22,158.22,0,0,1-23.19,40.22c-.73.92-1.46,1.82-2.23,2.7-.54.62-2.92,3.4-.76,3.59a4.5,4.5,0,0,0,2.88-1.19c5.77-4.33,12.9-10.86,17.33-18.3.18-.29.35-.59.52-.88.36-.63.72-1.25,1.06-1.88,2-3.6,3.75-7.31,5.47-11a15.23,15.23,0,0,1,.81-1.33,2.46,2.46,0,0,0,.35-1.28C208.3,231,208.34,229.88,208.4,228.92Z" transform="translate(-46.66 -119.21)"></path></svg>
