<?xml version="1.0" encoding="UTF-8"?>
<svg width="1181px" height="541px" viewBox="0 0 1181 541" version="1.1" xmlns="http://www.w3.org/2000/svg" xmlns:xlink="http://www.w3.org/1999/xlink">
    <title>Looking for Help1</title>
    <defs>
        <filter x="-30.9%" y="-61.2%" width="161.8%" height="222.4%" filterUnits="objectBoundingBox" id="filter-1">
            <feGaussianBlur stdDeviation="10" in="SourceGraphic"></feGaussianBlur>
        </filter>
        <filter x="-30.9%" y="-61.2%" width="161.8%" height="222.4%" filterUnits="objectBoundingBox" id="filter-2">
            <feGaussianBlur stdDeviation="10" in="SourceGraphic"></feGaussianBlur>
        </filter>
        <filter x="-30.9%" y="-61.2%" width="161.8%" height="222.4%" filterUnits="objectBoundingBox" id="filter-3">
            <feGaussianBlur stdDeviation="10" in="SourceGraphic"></feGaussianBlur>
        </filter>
        <filter x="-30.9%" y="-61.2%" width="161.8%" height="222.4%" filterUnits="objectBoundingBox" id="filter-4">
            <feGaussianBlur stdDeviation="10" in="SourceGraphic"></feGaussianBlur>
        </filter>
        <filter x="-30.9%" y="-61.2%" width="161.8%" height="222.4%" filterUnits="objectBoundingBox" id="filter-5">
            <feGaussianBlur stdDeviation="10" in="SourceGraphic"></feGaussianBlur>
        </filter>
        <path d="M264.5,0 C279.135546,-2.68850616e-15 291,11.8644541 291,26.5 C291,41.1355459 279.135546,53 264.5,53 L32.6260671,53.0010888 C31.5581546,56.4748633 28.3239659,59 24.5,59 C19.8055796,59 16,55.1944204 16,50.5 C16,49.916227 16.0588498,49.346199 16.1709404,48.7955252 C8.84902906,44.0804062 4,35.8564788 4,26.5 C4,11.8644541 15.8644541,2.68850616e-15 30.5,0 L264.5,0 Z" id="path-6"></path>
        <filter x="-4.7%" y="-19.5%" width="109.4%" height="145.8%" filterUnits="objectBoundingBox" id="filter-7">
            <feMorphology radius="0.5" operator="dilate" in="SourceAlpha" result="shadowSpreadOuter1"></feMorphology>
            <feOffset dx="0" dy="2" in="shadowSpreadOuter1" result="shadowOffsetOuter1"></feOffset>
            <feGaussianBlur stdDeviation="4" in="shadowOffsetOuter1" result="shadowBlurOuter1"></feGaussianBlur>
            <feComposite in="shadowBlurOuter1" in2="SourceAlpha" operator="out" result="shadowBlurOuter1"></feComposite>
            <feColorMatrix values="0 0 0 0 0.337254902   0 0 0 0 0.458823529   0 0 0 0 0.57254902  0 0 0 0.1 0" type="matrix" in="shadowBlurOuter1"></feColorMatrix>
        </filter>
        <circle id="path-8" cx="4.5" cy="63.5" r="4.5"></circle>
        <filter x="-266.7%" y="-244.4%" width="633.3%" height="633.3%" filterUnits="objectBoundingBox" id="filter-9">
            <feMorphology radius="0.5" operator="dilate" in="SourceAlpha" result="shadowSpreadOuter1"></feMorphology>
            <feOffset dx="0" dy="2" in="shadowSpreadOuter1" result="shadowOffsetOuter1"></feOffset>
            <feGaussianBlur stdDeviation="7.5" in="shadowOffsetOuter1" result="shadowBlurOuter1"></feGaussianBlur>
            <feComposite in="shadowBlurOuter1" in2="SourceAlpha" operator="out" result="shadowBlurOuter1"></feComposite>
            <feColorMatrix values="0 0 0 0 0.0901960784   0 0 0 0 0.22745098   0 0 0 0 0.337254902  0 0 0 0.1 0" type="matrix" in="shadowBlurOuter1"></feColorMatrix>
        </filter>
        <path d="M351.5,0 C366.135546,-2.68850616e-15 378,11.8644541 378,26.5 C378,40.4326322 367.247827,51.8539597 353.588558,52.9189051 C352.363438,56.4350417 348.534118,59 344,59 C339.501194,59 335.69625,56.4748379 334.439902,53.0010365 L26.5,53 C11.8644541,53 1.79233744e-15,41.1355459 0,26.5 C-1.79233744e-15,11.8644541 11.8644541,2.68850616e-15 26.5,0 L351.5,0 Z" id="path-10"></path>
        <filter x="-3.6%" y="-19.5%" width="107.1%" height="145.8%" filterUnits="objectBoundingBox" id="filter-11">
            <feMorphology radius="0.5" operator="dilate" in="SourceAlpha" result="shadowSpreadOuter1"></feMorphology>
            <feOffset dx="0" dy="2" in="shadowSpreadOuter1" result="shadowOffsetOuter1"></feOffset>
            <feGaussianBlur stdDeviation="4" in="shadowOffsetOuter1" result="shadowBlurOuter1"></feGaussianBlur>
            <feComposite in="shadowBlurOuter1" in2="SourceAlpha" operator="out" result="shadowBlurOuter1"></feComposite>
            <feColorMatrix values="0 0 0 0 0.337254902   0 0 0 0 0.458823529   0 0 0 0 0.57254902  0 0 0 0.1 0" type="matrix" in="shadowBlurOuter1"></feColorMatrix>
        </filter>
        <circle id="path-12" cx="376.5" cy="65.5" r="4.5"></circle>
        <filter x="-266.7%" y="-244.4%" width="633.3%" height="633.3%" filterUnits="objectBoundingBox" id="filter-13">
            <feMorphology radius="0.5" operator="dilate" in="SourceAlpha" result="shadowSpreadOuter1"></feMorphology>
            <feOffset dx="0" dy="2" in="shadowSpreadOuter1" result="shadowOffsetOuter1"></feOffset>
            <feGaussianBlur stdDeviation="7.5" in="shadowOffsetOuter1" result="shadowBlurOuter1"></feGaussianBlur>
            <feComposite in="shadowBlurOuter1" in2="SourceAlpha" operator="out" result="shadowBlurOuter1"></feComposite>
            <feColorMatrix values="0 0 0 0 0.0901960784   0 0 0 0 0.22745098   0 0 0 0 0.337254902  0 0 0 0.1 0" type="matrix" in="shadowBlurOuter1"></feColorMatrix>
        </filter>
        <path d="M254.5,0 C269.135546,-2.68850616e-15 281,11.8644541 281,26.5 C281,37.4079225 274.409566,46.7765668 264.993342,50.8412892 C264.814598,55.3770526 261.080391,59 256.5,59 C252.676034,59 249.441845,56.4748633 248.373933,53.0010888 L26.5,53 C11.8644541,53 -8.8658036e-15,41.1355459 0,26.5 C-1.79233744e-15,11.8644541 11.8644541,2.68850616e-15 26.5,0 L254.5,0 Z" id="path-14"></path>
        <filter x="-4.8%" y="-19.5%" width="109.6%" height="145.8%" filterUnits="objectBoundingBox" id="filter-15">
            <feMorphology radius="0.5" operator="dilate" in="SourceAlpha" result="shadowSpreadOuter1"></feMorphology>
            <feOffset dx="0" dy="2" in="shadowSpreadOuter1" result="shadowOffsetOuter1"></feOffset>
            <feGaussianBlur stdDeviation="4" in="shadowOffsetOuter1" result="shadowBlurOuter1"></feGaussianBlur>
            <feComposite in="shadowBlurOuter1" in2="SourceAlpha" operator="out" result="shadowBlurOuter1"></feComposite>
            <feColorMatrix values="0 0 0 0 0.337254902   0 0 0 0 0.458823529   0 0 0 0 0.57254902  0 0 0 0.1 0" type="matrix" in="shadowBlurOuter1"></feColorMatrix>
        </filter>
        <circle id="path-16" cx="281.5" cy="63.5" r="4.5"></circle>
        <filter x="-266.7%" y="-244.4%" width="633.3%" height="633.3%" filterUnits="objectBoundingBox" id="filter-17">
            <feMorphology radius="0.5" operator="dilate" in="SourceAlpha" result="shadowSpreadOuter1"></feMorphology>
            <feOffset dx="0" dy="2" in="shadowSpreadOuter1" result="shadowOffsetOuter1"></feOffset>
            <feGaussianBlur stdDeviation="7.5" in="shadowOffsetOuter1" result="shadowBlurOuter1"></feGaussianBlur>
            <feComposite in="shadowBlurOuter1" in2="SourceAlpha" operator="out" result="shadowBlurOuter1"></feComposite>
            <feColorMatrix values="0 0 0 0 0.0901960784   0 0 0 0 0.22745098   0 0 0 0 0.337254902  0 0 0 0.1 0" type="matrix" in="shadowBlurOuter1"></feColorMatrix>
        </filter>
        <path d="M193.5,0 C208.135546,6.75775616e-15 220,11.8644541 220,26.5 C220,37.0154419 213.875298,46.100383 204.998614,50.3821031 L205,50.5 C205,55.1944204 201.19442,59 196.5,59 C192.676034,59 189.441845,56.4748633 188.373933,53.0010888 L26.5,53 C11.8644541,53 -1.76037624e-15,41.1355459 0,26.5 C-5.34505112e-15,11.8644541 11.8644541,-8.64207518e-16 26.5,0 L193.5,0 Z" id="path-18"></path>
        <filter x="-6.1%" y="-19.5%" width="112.3%" height="145.8%" filterUnits="objectBoundingBox" id="filter-19">
            <feMorphology radius="0.5" operator="dilate" in="SourceAlpha" result="shadowSpreadOuter1"></feMorphology>
            <feOffset dx="0" dy="2" in="shadowSpreadOuter1" result="shadowOffsetOuter1"></feOffset>
            <feGaussianBlur stdDeviation="4" in="shadowOffsetOuter1" result="shadowBlurOuter1"></feGaussianBlur>
            <feComposite in="shadowBlurOuter1" in2="SourceAlpha" operator="out" result="shadowBlurOuter1"></feComposite>
            <feColorMatrix values="0 0 0 0 0.337254902   0 0 0 0 0.458823529   0 0 0 0 0.57254902  0 0 0 0.1 0" type="matrix" in="shadowBlurOuter1"></feColorMatrix>
        </filter>
        <circle id="path-20" cx="221.5" cy="63.5" r="4.5"></circle>
        <filter x="-266.7%" y="-244.4%" width="633.3%" height="633.3%" filterUnits="objectBoundingBox" id="filter-21">
            <feMorphology radius="0.5" operator="dilate" in="SourceAlpha" result="shadowSpreadOuter1"></feMorphology>
            <feOffset dx="0" dy="2" in="shadowSpreadOuter1" result="shadowOffsetOuter1"></feOffset>
            <feGaussianBlur stdDeviation="7.5" in="shadowOffsetOuter1" result="shadowBlurOuter1"></feGaussianBlur>
            <feComposite in="shadowBlurOuter1" in2="SourceAlpha" operator="out" result="shadowBlurOuter1"></feComposite>
            <feColorMatrix values="0 0 0 0 0.0901960784   0 0 0 0 0.22745098   0 0 0 0 0.337254902  0 0 0 0.1 0" type="matrix" in="shadowBlurOuter1"></feColorMatrix>
        </filter>
        <path d="M267.5,0 C282.135546,-6.24121984e-15 294,11.8644541 294,26.5 C294,37.0154419 287.875298,46.100383 278.998614,50.3821031 L279,50.5 C279,55.1944204 275.19442,59 270.5,59 C266.676034,59 263.441845,56.4748633 262.373933,53.0010888 L26.5,53 C11.8644541,53 -1.76037624e-15,41.1355459 0,26.5 C-5.34505112e-15,11.8644541 11.8644541,-8.64207518e-16 26.5,0 L267.5,0 Z" id="path-22"></path>
        <filter x="-4.6%" y="-19.5%" width="109.2%" height="145.8%" filterUnits="objectBoundingBox" id="filter-23">
            <feMorphology radius="0.5" operator="dilate" in="SourceAlpha" result="shadowSpreadOuter1"></feMorphology>
            <feOffset dx="0" dy="2" in="shadowSpreadOuter1" result="shadowOffsetOuter1"></feOffset>
            <feGaussianBlur stdDeviation="4" in="shadowOffsetOuter1" result="shadowBlurOuter1"></feGaussianBlur>
            <feComposite in="shadowBlurOuter1" in2="SourceAlpha" operator="out" result="shadowBlurOuter1"></feComposite>
            <feColorMatrix values="0 0 0 0 0.337254902   0 0 0 0 0.458823529   0 0 0 0 0.57254902  0 0 0 0.1 0" type="matrix" in="shadowBlurOuter1"></feColorMatrix>
        </filter>
        <circle id="path-24" cx="293.5" cy="63.5" r="4.5"></circle>
        <filter x="-266.7%" y="-244.4%" width="633.3%" height="633.3%" filterUnits="objectBoundingBox" id="filter-25">
            <feMorphology radius="0.5" operator="dilate" in="SourceAlpha" result="shadowSpreadOuter1"></feMorphology>
            <feOffset dx="0" dy="2" in="shadowSpreadOuter1" result="shadowOffsetOuter1"></feOffset>
            <feGaussianBlur stdDeviation="7.5" in="shadowOffsetOuter1" result="shadowBlurOuter1"></feGaussianBlur>
            <feComposite in="shadowBlurOuter1" in2="SourceAlpha" operator="out" result="shadowBlurOuter1"></feComposite>
            <feColorMatrix values="0 0 0 0 0.0901960784   0 0 0 0 0.22745098   0 0 0 0 0.337254902  0 0 0 0.1 0" type="matrix" in="shadowBlurOuter1"></feColorMatrix>
        </filter>
    </defs>
    <g id="Page-1" stroke="none" stroke-width="1" fill="none" fill-rule="evenodd">
        <g id="Footer" transform="translate(-139.000000, -95.000000)">
            <g id="Looking-for-Help1" transform="translate(148.000000, 102.000000)">
                <g id="Core-.OPEN-Copy-4" transform="translate(746.000000, 152.000000)">
                    <rect id="Shadow" fill="#E5F8FB" opacity="0.848005022" filter="url(#filter-1)" x="0.97029703" y="49" width="97.029703" height="49" rx="19"></rect>
                    <rect id="icon-bd" stroke="#002677" stroke-width="2" x="0" y="0" width="98" height="98" rx="48.5148515"></rect>
                    <g id="Coalition-Copy-3" transform="translate(23.000000, 23.000000)" fill-rule="nonzero">
                        <path d="M39.6440078,20.2082969 L38.3228828,22.9546484 L44.7379766,26.0431641 L48.9229609,19.4555156 L46.3521094,17.8219844 L44.8984453,20.1091719 C43.8236094,16.6829609 41.8151094,13.5358437 39.0980078,11.1450625 L37.0865625,13.4331641 C39.4836406,15.5422109 41.2200547,18.3469609 42.0952187,21.3880469 L39.6440078,20.2082969 Z" id="Path" fill="#00BED5"></path>
                        <path d="M9.08222656,15.7237031 C7.21530469,18.8088672 6.18322656,22.3983906 6.1953125,26.0044688 L9.2421875,25.9955312 C9.23192969,22.8179453 10.1878359,19.6616875 11.8959141,16.9824688 L12.6341719,19.6057266 L15.5680078,18.7785 L13.6354766,11.9170391 L5.93500781,13.1384297 L6.41113281,16.1466094 L9.08222656,15.7237031 Z" id="Path" fill="#00BED5"></path>
                        <path d="M32.09375,6.1953125 C32.09375,2.83450781 29.3608047,0 26,0 C22.6391953,0 19.90625,2.83450781 19.90625,6.1953125 C19.90625,9.55611719 22.6391953,12.2890625 26,12.2890625 C29.3608047,12.2890625 32.09375,9.55611719 32.09375,6.1953125 Z" id="Path" fill="#002677"></path>
                        <path d="M35.140625,21.4296875 C35.140625,16.3892422 31.0404453,12.2890625 26,12.2890625 C20.9595547,12.2890625 16.859375,16.3892422 16.859375,21.4296875 L16.859375,24.4765625 L35.140625,24.4765625 L35.140625,21.4296875 Z" id="Path" fill="#002677"></path>
                        <circle id="Oval" fill="#002677" cx="9.2421875" cy="33.6171875" r="6.09375"></circle>
                        <path d="M18.3828125,48.8515625 C18.3828125,43.8111172 14.2826328,39.7109375 9.2421875,39.7109375 C4.20174219,39.7109375 0,43.8111172 0,48.8515625 L0,52 L18.3828125,52 L18.3828125,48.8515625 Z" id="Path" fill="#002677"></path>
                        <circle id="Oval" fill="#002677" cx="42.7578125" cy="33.6171875" r="6.09375"></circle>
                        <path d="M33.6171875,48.8515625 L33.6171875,52 L52,52 L52,48.8515625 C52,43.8111172 47.7982578,39.7109375 42.7578125,39.7109375 C37.7173672,39.7109375 33.6171875,43.8111172 33.6171875,48.8515625 Z" id="Path" fill="#002677"></path>
                        <path d="M23.7416563,38.5535312 L18.7934297,43.2636953 L22.7047031,49.5671719 L25.2933281,47.9604531 L23.8616016,45.6537656 C24.5731484,45.7309531 25.2855078,45.8092578 26,45.8092578 C28.4666484,45.8092578 30.931875,45.3510078 33.2407969,44.4405 L32.1219844,41.604875 C29.5080703,42.6362422 26.6599531,42.9790156 23.8827266,42.6265938 L25.8422734,40.7613984 L23.7416563,38.5535312 Z" id="Path" fill="#00BED5"></path>
                    </g>
                </g>
                <g id="Core-.OPEN-Copy-5" transform="translate(674.000000, 406.000000)">
                    <rect id="Shadow" fill="#E5F8FB" opacity="0.848005022" filter="url(#filter-2)" x="0.97029703" y="49" width="97.029703" height="49" rx="19"></rect>
                    <rect id="icon-bd" stroke="#002677" stroke-width="2" x="0" y="0" width="98" height="98" rx="48.5148515"></rect>
                    <g id="Developer-Community-Copy" transform="translate(19.000000, 19.000000)">
                        <polygon id="Path" stroke-opacity="0.012" stroke="#000000" points="0 0 60 0 60 60 0 60"></polygon>
                        <g id="Group" stroke-linecap="round" stroke-linejoin="round" transform="translate(2.216116, 6.875000)">
                            <path d="M5.55888441,20 L2.50888441,20 C1.69638441,20 1.03888441,19.67875 0.537634409,19.0375 C0.0376344086,18.39625 -0.113615591,17.68125 0.0838844086,16.8925 L3.83388441,1.8925 C4.15013441,0.63 4.95888441,0 6.25888441,0 L49.8563844,0 C51.1563844,0 51.9651344,0.63125 52.2813844,1.8925 L56.0313844,16.8925 C56.2288844,17.68125 56.0776344,18.39625 55.5776344,19.0375 C55.0776344,19.67875 54.4201344,20 53.6063844,20 L50.5588844,20 M6.80888441,15 L9.30888441,15 M11.8088844,10 L14.3088844,10 M19.3088844,10 L21.8088844,10 M26.8088844,10 L29.3088844,10 M34.3088844,10 L36.8088844,10 M41.8088844,10 L44.3088844,10 M11.8088844,5 L14.3088844,5 M19.3088844,5 L21.8088844,5 M26.8088844,5 L29.3088844,5 M34.3088844,5 L36.8088844,5 M41.8088844,5 L44.3088844,5 M14.3088844,15 L41.8088844,15 M46.8088844,15 L49.3088844,15" id="Shape" stroke="#002677" stroke-width="1.5"></path>
                            <path d="M13.0613844,32.4775 L15.1688844,25.105 C15.4688844,23.905 15.0238844,23.13375 13.8338844,22.7925 C12.6438844,22.4525 11.8588844,22.87125 11.4788844,24.05 L10.4288844,27.735 M19.4988844,45 C22.1913844,42.3575 24.9838844,39.2 24.9838844,39.2 C25.6888844,38.635 25.8038844,37.9675 25.3288844,37.19875 C24.8538844,36.43 24.2038844,36.23375 23.3838844,36.6125 L19.0338844,39.495 L22.5338844,27.2075 C22.7463844,26.495 22.5938844,25.87 22.0788844,25.3325 C21.5626344,24.795 20.9438844,24.62 20.2226344,24.8025 C19.5013844,24.98625 19.0426344,25.4375 18.8463844,26.155 L16.7438844,33.5275 M8.85138441,33.265 L10.4288844,27.735 C10.7788844,26.50625 10.3388844,25.7175 9.11013441,25.36875 C7.88138441,25.01875 7.09263441,25.45875 6.74388441,26.6875 L3.24388441,38.9725 C2.61513441,41.15375 3.03138441,43.11125 4.49388441,44.8475 M37.2638844,26.155 L36.5613844,23.6975 C36.2588844,22.4975 36.7026344,21.72625 37.8926344,21.385 C39.0838844,21.045 39.8676344,21.46375 40.2463844,22.6425 L40.9463844,25.105" id="Shape" stroke="#00BED5" stroke-width="1.5"></path>
                            <path d="M18.8513844,26.155 L19.5563844,23.6975 C19.9063844,22.46875 19.4688844,21.67875 18.2401344,21.3275 C17.0113844,20.97625 16.2213844,21.415 15.8688844,22.6425 L15.1688844,25.105" id="Path" stroke="#00BED5"></path>
                            <path d="M43.0538844,32.4775 L40.9463844,25.105 C40.6463844,23.905 41.0913844,23.13375 42.2813844,22.7925 C43.4713844,22.4525 44.2563844,22.87125 44.6363844,24.05 L45.6863844,27.735 M36.6163844,45 C33.9238844,42.3575 31.1313844,39.2 31.1313844,39.2 C30.4263844,38.635 30.3113844,37.9675 30.7863844,37.19875 C31.2613844,36.43 31.9113844,36.23375 32.7313844,36.6125 L37.0863844,39.495 L33.5863844,27.2075 C33.3738844,26.495 33.5263844,25.87 34.0413844,25.3325 C34.5576344,24.795 35.1763844,24.62 35.8976344,24.8025 C36.6188844,24.98625 37.0776344,25.4375 37.2738844,26.155 L39.3788844,33.5275" id="Shape" stroke="#00BED5" stroke-width="1.5"></path>
                            <path d="M47.2638844,33.265 L45.6863844,27.735 C45.4588844,27.015 45.6063844,26.3825 46.1263844,25.835 C46.6463844,25.28875 47.2713844,25.11125 48.0013844,25.30375 C48.7313844,25.495 49.1888844,25.95625 49.3738844,26.6875 L52.8738844,38.9725 C53.5026344,41.15375 53.0863844,43.11125 51.6238844,44.8475" id="Path" stroke="#00BED5" stroke-width="1.5"></path>
                        </g>
                    </g>
                </g>
                <g id="Core-.OPEN-Copy-7" transform="translate(373.000000, 406.000000)">
                    <rect id="Shadow" fill="#E5F8FB" opacity="0.848005022" filter="url(#filter-3)" x="0.97029703" y="49" width="97.029703" height="49" rx="19"></rect>
                    <rect id="icon-bd" stroke="#002677" stroke-width="2" x="0" y="0" width="98" height="98" rx="48.5148515"></rect>
                    <g id="Identify,-Analyze-&amp;-Rationalize" transform="translate(19.000000, 21.000000)" fill-rule="nonzero">
                        <path d="M23.2445711,17.4042744 C23.2445711,19.8185339 21.2876203,21.7759424 18.8729031,21.7759424 C16.4586436,21.7759424 14.5016928,19.8185339 14.5016928,17.4042744 C14.5016928,14.9900149 16.4586436,13.0326064 18.8729031,13.0326064 C21.2876203,13.0326064 23.2445711,14.9900149 23.2445711,17.4042744 Z" id="Path" fill="#00BED5"></path>
                        <path d="M46.9673936,17.4042744 C46.9673936,19.8185339 45.0104428,21.7759424 42.5957256,21.7759424 C40.1814661,21.7759424 38.2245153,19.8185339 38.2245153,17.4042744 C38.2245153,14.9900149 40.1814661,13.0326064 42.5957256,13.0326064 C45.0104428,13.0326064 46.9673936,14.9900149 46.9673936,17.4042744 Z" id="Path" fill="#00BED5"></path>
                        <path d="M35.1062112,5.54309199 C35.1062112,7.95735147 33.1488027,9.91430228 30.7345432,9.91430228 C28.3202837,9.91430228 26.3628752,7.95735147 26.3628752,5.54309199 C26.3628752,3.12837478 28.3202837,1.17142397 30.7345432,1.17142397 C33.1488027,1.17142397 35.1062112,3.12837478 35.1062112,5.54309199 Z" id="Path" fill="#00BED5"></path>
                        <path d="M58.8290338,5.54309199 C58.8290338,7.95735147 56.8716251,9.91430228 54.4573657,9.91430228 C52.0431063,9.91430228 50.0856976,7.95735147 50.0856976,5.54309199 C50.0856976,3.12837478 52.0431063,1.17142397 54.4573657,1.17142397 C56.8716251,1.17142397 58.8290338,3.12837478 58.8290338,5.54309199 Z" id="Path" fill="#00BED5"></path>
                        <path d="M57.5248576,25.5909667 C56.0664143,24.9409386 54.3378888,25.1885901 53.1161105,26.2277197 L44.4597499,33.6723729 C44.0335695,31.6156289 42.2075398,30.0647167 40.0258256,30.0647167 L31.7745882,30.0647167 L30.2932565,29.1578817 C27.8391714,27.6564083 25.0211621,26.8630993 22.144101,26.8630993 C18.2320303,26.8630993 14.471938,28.5170089 11.8283376,31.4013943 L8.38913952,35.1532468 L8.22937899,34.9934864 C7.14172629,33.9062914 5.3724596,33.9062914 4.28572237,34.9934864 L0.81539614,38.4633549 C-0.271798713,39.5505498 -0.271798713,41.3198165 0.81539614,42.4070115 L12.893102,54.4847173 C13.4364706,55.0280858 14.150586,55.2999991 14.8647014,55.2999991 C15.5788168,55.2999991 16.2929322,55.0280858 16.8367586,54.4847173 L20.3066271,51.014391 C21.3938221,49.9271961 21.3938221,48.1579293 20.3066271,47.0707345 L19.8571005,46.6212079 C20.1432045,46.5786357 20.4325128,46.5548318 20.7209056,46.5548318 L23.9802015,46.5548318 C24.6274831,46.5548318 25.1520833,46.0302316 25.1520833,45.3834079 C25.1520833,44.7361264 24.6274831,44.2115261 23.9802015,44.2115261 L20.7209056,44.2115261 C19.7751605,44.2115261 18.8266687,44.3795264 17.9344821,44.6981317 L10.0476267,36.8112763 L13.5554898,32.9843501 C15.7564302,30.5833659 18.8870938,29.2059471 22.1445588,29.2059471 C24.5894885,29.2059471 26.9845217,29.8806947 29.070105,31.1564894 L30.8334207,32.2354445 C31.0174428,32.3480549 31.2289308,32.4075646 31.4449965,32.4075646 L40.0258256,32.4075646 C41.2306665,32.4075646 42.2107441,33.3881 42.2107441,34.5929408 C42.2107441,35.7808444 41.257217,36.7481045 40.0757221,36.7751128 L25.6840077,36.7751128 C25.037184,36.7751128 24.512126,37.2997129 24.512126,37.9469945 C24.512126,38.5938182 25.037184,39.1184185 25.6840077,39.1184185 L39.9759291,39.1184185 C39.9928664,39.1193339 40.0088883,39.1207073 40.0258256,39.1207073 C40.0867085,39.1207073 40.1466759,39.1188762 40.207101,39.1161295 C41.210067,39.0946146 42.1777849,38.7261128 42.9399659,38.0705914 L54.6390989,28.0084305 C55.1728545,27.5547841 55.9309155,27.4458358 56.5704149,27.7310242 C57.1298053,27.9800491 57.514329,28.4680279 57.626024,29.0699906 C57.7372612,29.6719533 57.5532392,30.2652184 57.1201922,30.6982652 L46.9078841,40.9160667 C44.7838485,43.0410178 41.9594304,44.2115261 38.9551102,44.2115261 L34.5253058,44.2115261 C33.8780244,44.2115261 33.3534241,44.7361264 33.3534241,45.3829501 C33.3534241,46.0302316 33.8780244,46.5548318 34.5253058,46.5548318 L38.9551102,46.5548318 C42.5856547,46.5548318 45.9983024,45.1407918 48.5654558,42.5727228 L58.7777639,32.3549215 C59.7496018,31.3826259 60.1803599,29.9951362 59.9299618,28.6433524 C59.6795636,27.2915685 58.7805106,26.1503572 57.5248576,25.5909667 Z M18.6499708,49.3572771 L15.1796446,52.8276033 C15.0061512,53.0010968 14.7232517,53.0010968 14.5497582,52.8276033 L2.47251011,40.7498975 C2.29901678,40.5764041 2.29901678,40.2939623 2.47251011,40.1204688 L5.9423786,36.6506003 C6.02935426,36.5636247 6.14333803,36.520137 6.25732181,36.520137 C6.37176344,36.520137 6.48574722,36.5636247 6.57226502,36.6506003 L18.6499708,48.7278484 C18.8234643,48.9013418 18.8234643,49.1837837 18.6499708,49.3572771 Z" id="Shape" fill="#002677"></path>
                        <path d="M29.2527537,44.2234281 C28.9446771,44.2234281 28.6425512,44.348856 28.4246546,44.5667528 C28.2067577,44.7846495 28.0813298,45.0867753 28.0813298,45.3948521 C28.0813298,45.7033865 28.2067577,46.0055123 28.4246546,46.223409 C28.6425512,46.4413058 28.9446771,46.5667338 29.2527537,46.5667338 C29.5612882,46.5667338 29.8634139,46.4413058 30.0813107,46.223409 C30.2992074,46.0055123 30.4246355,45.7033865 30.4246355,45.3948521 C30.4246355,45.0867753 30.2992074,44.7846495 30.0813107,44.5667528 C29.8634139,44.348856 29.5612882,44.2234281 29.2527537,44.2234281 L29.2527537,44.2234281 Z" id="Path" fill="#000000"></path>
                        <path d="M18.8733608,22.9473664 C20.353777,22.9473664 21.7458443,22.3705809 22.7927558,21.3236694 C23.8396674,20.2767579 24.4164528,18.8851484 24.4164528,17.4042744 C24.4164528,16.3225726 24.1070029,15.2884787 23.5329639,14.4013275 L27.7315963,10.2026951 C28.6187475,10.7771918 29.6528414,11.086184 30.7345432,11.086184 C31.816245,11.086184 32.8503389,10.7771918 33.7374901,10.2026951 L37.9361225,14.4013275 C37.3620835,15.2884787 37.0526336,16.3225726 37.0526336,17.4042744 C37.0526336,18.8846906 37.629419,20.2767579 38.6763306,21.3236694 C39.7232421,22.3705809 41.1153094,22.9473664 42.5957256,22.9473664 C44.0765996,22.9473664 45.4686668,22.3705809 46.5155784,21.3236694 C47.5624898,20.2767579 48.1388176,18.8846906 48.1388176,17.4042744 C48.1388176,16.3225726 47.8298253,15.2884787 47.2557865,14.4013275 L51.453961,10.2026951 C52.3411122,10.7771918 53.3752062,11.086184 54.4569079,11.086184 C55.9377819,11.086184 57.3298493,10.5093986 58.3767607,9.46248704 C59.4236722,8.4155755 60,7.02350824 60,5.54309199 C60,4.06221801 59.4236722,2.67015075 58.3767607,1.62323921 C57.3293914,0.57632779 55.9377819,0 54.4569079,0 C52.9764918,0 51.5844245,0.57632779 50.537513,1.62323921 C49.4906014,2.67015075 48.9138159,4.06221801 48.9138159,5.54309199 C48.9138159,6.62479377 49.2232659,7.65842999 49.7973049,8.54558113 L45.5986725,12.7446713 C44.7115213,12.1701746 43.6774274,11.8611824 42.5957256,11.8611824 C41.5140238,11.8611824 40.4799297,12.1701746 39.5927787,12.7446713 L35.3941463,8.54603886 C35.968643,7.65888785 36.2776352,6.62479377 36.2776352,5.54309199 C36.2776352,4.06221801 35.7008497,2.67015075 34.6539382,1.62369706 C33.6070267,0.57632779 32.2149594,0 30.7345432,0 C29.2536692,0 27.861602,0.576785527 26.8146904,1.62369706 C25.7677789,2.67015075 25.1914512,4.06221801 25.1914512,5.54309199 C25.1914512,6.62479377 25.5004434,7.65888785 26.0744824,8.54603886 L21.8758499,12.7446713 C20.9886988,12.1706324 19.9550626,11.8611824 18.8729031,11.8611824 C17.3924868,11.8611824 16.0004196,12.4379679 14.953508,13.4848794 C13.9065966,14.5317909 13.3302688,15.9238582 13.3302688,17.4042744 C13.3302688,18.8851484 13.9065966,20.2772156 14.953508,21.3241272 C16.0004196,22.3710387 17.3924868,22.9473664 18.8733608,22.9473664 Z M52.1946269,3.2803533 C52.7988784,2.6761018 53.602716,2.34284794 54.4573657,2.34284794 C55.3120154,2.34284794 56.1158529,2.6761018 56.7201044,3.2803533 C57.3243559,3.88460481 57.6571521,4.68798456 57.6571521,5.54309199 C57.6571521,6.39774169 57.3243559,7.20112156 56.7201044,7.80537306 C56.1158529,8.4100823 55.3120154,8.74287843 54.4573657,8.74287843 C53.602716,8.74287843 52.7993362,8.4100823 52.1946269,7.80537306 C51.5903754,7.20112156 51.2575793,6.39774169 51.2575793,5.54309199 C51.2575793,4.68798456 51.5903754,3.88460481 52.1946269,3.2803533 Z M44.8584643,15.1415356 C45.4631737,15.7462449 45.7959697,16.5496247 45.7959697,17.4042744 C45.7959697,18.2589241 45.4631737,19.0623038 44.8584643,19.6670132 C44.2542128,20.2712647 43.450833,20.6040607 42.5957256,20.6040607 C41.7410759,20.6040607 40.937696,20.2712647 40.3334445,19.6670132 C39.7287353,19.0627617 39.3959392,18.2589241 39.3959392,17.4042744 C39.3959392,16.5496247 39.7287353,15.7462449 40.3334445,15.1415356 C40.937696,14.5372841 41.7410759,14.2044881 42.5957256,14.2044881 C43.450833,14.2044881 44.2542128,14.5372841 44.8584643,15.1415356 Z M28.4718044,3.2803533 C29.0760559,2.6761018 29.8798935,2.34284794 30.7345432,2.34284794 C31.5891929,2.34284794 32.3930305,2.6761018 32.997282,3.2803533 C33.6015335,3.88460481 33.9343295,4.68798456 33.9343295,5.54309199 C33.9343295,6.39774169 33.6015335,7.20112156 32.997282,7.80537306 C32.3930305,8.4100823 31.5891929,8.74287843 30.7345432,8.74287843 C29.9421497,8.74287843 29.1941597,8.45631667 28.6077611,7.93308977 C28.5715975,7.88319327 28.5326873,7.83512784 28.4878262,7.78980895 C28.4425074,7.74494791 28.3944419,7.70603769 28.3445454,7.66987424 C27.8213185,7.08347553 27.5347569,6.33548547 27.5347569,5.54309199 C27.5347569,4.68798456 27.8675529,3.88460481 28.4718044,3.2803533 Z M16.6106221,15.1415356 C17.2148736,14.5372841 18.0187111,14.2044881 18.8733608,14.2044881 C19.7280105,14.2044881 20.5313904,14.5372841 21.1360996,15.1415356 C21.7403511,15.7462449 22.0731472,16.5496247 22.0731472,17.4042744 C22.0731472,18.2589241 21.7403511,19.0623038 21.1360996,19.6670132 C20.5313904,20.2712647 19.7280105,20.6040607 18.8733608,20.6040607 C18.0187111,20.6040607 17.2148736,20.2712647 16.6106221,19.6670132 C16.0063706,19.0627617 15.6731167,18.2589241 15.6731167,17.4042744 C15.6731167,16.5496247 16.0063706,15.7462449 16.6106221,15.1415356 Z" id="Shape" fill="#002677"></path>
                    </g>
                </g>
                <g id="Core-.OPEN-Copy-9" transform="translate(301.000000, 152.000000)">
                    <rect id="Shadow" fill="#E5F8FB" opacity="0.848005022" filter="url(#filter-4)" x="0.97029703" y="49" width="97.029703" height="49" rx="19"></rect>
                    <rect id="icon-bd" stroke="#002677" stroke-width="2" x="0" y="0" width="98" height="98" rx="48.5148515"></rect>
                    <g id="Group-12" transform="translate(23.000000, 26.000000)">
                        <path d="M52,46.0097475 L43.1755981,36.1020775 L15.4505981,36.1027913 C13.2414591,36.1027913 11.4505981,34.3119303 11.4505981,32.1027913 L11.4505981,12.2250775 C11.4505981,10.0159385 13.2414591,8.22507754 15.4505981,8.22507754 L48,8.22507754 C50.209139,8.22507754 52,10.0159385 52,12.2250775 L52,46.0097475 Z" id="Combined-Shape" fill="#002677"></path>
                        <path d="M36.5494019,1.5 C37.2397578,1.5 37.8647578,1.77982203 38.3171688,2.23223305 C38.7695798,2.68464406 39.0494019,3.30964406 39.0494019,4 L39.0494019,4 L39.0494019,33.8452457 L32.3976911,26.3769827 L4,26.3777138 C3.30964406,26.3777138 2.68464406,26.0978917 2.23223305,25.6454807 C1.77982203,25.1930697 1.5,24.5680697 1.5,23.8777138 L1.5,23.8777138 L1.5,4 C1.5,3.30964406 1.77982203,2.68464406 2.23223305,2.23223305 C2.68464406,1.77982203 3.30964406,1.5 4,1.5 L4,1.5 Z" id="Combined-Shape" stroke="#002677" stroke-width="3" transform="translate(20.274701, 18.892335) scale(-1, 1) translate(-20.274701, -18.892335) "></path>
                        <rect id="Rectangle" fill="#00BED5" x="14.9065131" y="14.2153301" width="30.6424457" height="3.91670359"></rect>
                        <rect id="Rectangle" fill="#00BED5" x="14.9065131" y="23.4311032" width="24.1914045" height="3.91670359"></rect>
                    </g>
                </g>
                <g id="Core-.OPEN-Copy-10" transform="translate(524.000000, 0.000000)">
                    <rect id="Shadow" fill="#E5F8FB" opacity="0.848005022" filter="url(#filter-5)" x="0.97029703" y="49" width="97.029703" height="49" rx="19"></rect>
                    <rect id="icon-bd" stroke="#002677" stroke-width="2" x="0" y="0" width="98" height="98" rx="48.5148515"></rect>
                    <g id="Group-3" transform="translate(29.000000, 19.000000)">
                        <polygon id="Path" fill="#00BED5" points="15 60 25 60 25 50 15 50"></polygon>
                        <path d="M20,-9.62193288e-14 C8.95,-9.62193288e-14 -3.03090886e-12,8.95 -3.03090886e-12,20 L10,20 C10,14.5 14.5,10 20,10 C25.5,10 30,14.5 30,20 C30,30 15,28.75 15,45 L25,45 C25,33.75 40,32.5 40,20 C40,8.95 31.05,-9.62193288e-14 20,-9.62193288e-14 Z" id="Path" fill="#002677"></path>
                    </g>
                </g>
                <g id="Text" transform="translate(145.500000, 186.000000) scale(-1, 1) translate(-145.500000, -186.000000) translate(0.000000, 152.000000)">
                    <g id="Combined-Shape">
                        <use fill="black" fill-opacity="1" filter="url(#filter-7)" xlink:href="#path-6"></use>
                        <use stroke="#99E5EE" stroke-width="1" fill="#FFFFFF" fill-rule="evenodd" xlink:href="#path-6"></use>
                    </g>
                    <g id="Oval-Copy-2">
                        <use fill="black" fill-opacity="1" filter="url(#filter-9)" xlink:href="#path-8"></use>
                        <use stroke="#99E5EE" stroke-width="1" fill="#FFFFFF" fill-rule="evenodd" xlink:href="#path-8"></use>
                    </g>
                    <text id="Give-feedback-on-you" transform="translate(151.500000, 27.500000) scale(-1, 1) translate(-151.500000, -27.500000) " font-family="UHCSans-Medium, UHC Sans" font-size="17" font-weight="400" fill="#333333">
                        <tspan x="28" y="30">Give feedback on your experience</tspan>
                    </text>
                </g>
                <g id="Text" transform="translate(972.500000, 441.000000) scale(-1, 1) translate(-972.500000, -441.000000) translate(782.000000, 406.000000)">
                    <g id="Combined-Shape">
                        <use fill="black" fill-opacity="1" filter="url(#filter-11)" xlink:href="#path-10"></use>
                        <use stroke="#99E5EE" stroke-width="1" fill="#FFFFFF" fill-rule="evenodd" xlink:href="#path-10"></use>
                    </g>
                    <g id="Oval-Copy-2">
                        <use fill="black" fill-opacity="1" filter="url(#filter-13)" xlink:href="#path-12"></use>
                        <use stroke="#99E5EE" stroke-width="1" fill="#FFFFFF" fill-rule="evenodd" xlink:href="#path-12"></use>
                    </g>
                    <text id="Questions-about-Acce" transform="translate(188.500000, 24.500000) scale(-1, 1) translate(-188.500000, -24.500000) " font-family="UHCSans-Medium, UHC Sans" font-size="17" font-weight="400" fill="#333333">
                        <tspan x="14.5" y="27">Questions about Accelerators &amp; Design Patterns</tspan>
                    </text>
                </g>
                <g id="Text" transform="translate(997.000000, 186.000000) scale(-1, 1) translate(-997.000000, -186.000000) translate(854.000000, 152.000000)">
                    <g id="Combined-Shape">
                        <use fill="black" fill-opacity="1" filter="url(#filter-15)" xlink:href="#path-14"></use>
                        <use stroke="#99E5EE" stroke-width="1" fill="#FFFFFF" fill-rule="evenodd" xlink:href="#path-14"></use>
                    </g>
                    <g id="Oval-Copy-2">
                        <use fill="black" fill-opacity="1" filter="url(#filter-17)" xlink:href="#path-16"></use>
                        <use stroke="#99E5EE" stroke-width="1" fill="#FFFFFF" fill-rule="evenodd" xlink:href="#path-16"></use>
                    </g>
                    <text id="Questions-about-.OPE" transform="translate(142.000000, 26.500000) scale(-1, 1) translate(-142.000000, -26.500000) " font-family="UHCSans-Medium, UHC Sans" font-size="17" font-weight="400" fill="#333333">
                        <tspan x="18.393" y="29">Questions about .OPEN Coalitions</tspan>
                    </text>
                </g>
                <g id="Text" transform="translate(743.000000, 34.000000) scale(-1, 1) translate(-743.000000, -34.000000) translate(630.000000, 0.000000)">
                    <g id="Combined-Shape">
                        <use fill="black" fill-opacity="1" filter="url(#filter-19)" xlink:href="#path-18"></use>
                        <use stroke="#99E5EE" stroke-width="1" fill="#FFFFFF" fill-rule="evenodd" xlink:href="#path-18"></use>
                    </g>
                    <g id="Oval-Copy-2">
                        <use fill="black" fill-opacity="1" filter="url(#filter-21)" xlink:href="#path-20"></use>
                        <use stroke="#99E5EE" stroke-width="1" fill="#FFFFFF" fill-rule="evenodd" xlink:href="#path-20"></use>
                    </g>
                    <text id="General-Questions" transform="translate(118.500000, 28.500000) scale(-1, 1) translate(-118.500000, -28.500000) " font-family="UHCSans-Medium, UHC Sans" font-size="17" font-weight="400" fill="#333333">
                        <tspan x="51.503" y="31">General Questions</tspan>
                    </text>
                </g>
                <g id="Text" transform="translate(65.000000, 406.000000)">
                    <g id="Combined-Shape">
                        <use fill="black" fill-opacity="1" filter="url(#filter-23)" xlink:href="#path-22"></use>
                        <use stroke="#99E5EE" stroke-width="1" fill="#FFFFFF" fill-rule="evenodd" xlink:href="#path-22"></use>
                    </g>
                    <g id="Oval-Copy-2">
                        <use fill="black" fill-opacity="1" filter="url(#filter-25)" xlink:href="#path-24"></use>
                        <use stroke="#99E5EE" stroke-width="1" fill="#FFFFFF" fill-rule="evenodd" xlink:href="#path-24"></use>
                    </g>
                    <text id="Questions-about-Prod" font-family="UHCSans-Medium, UHC Sans" font-size="17" font-weight="400" fill="#333333">
                        <tspan x="16.4985" y="30">Questions about Product Capability</tspan>
                    </text>
                </g>
            </g>
        </g>
    </g>
</svg>