<?xml version="1.0" encoding="UTF-8"?>
<svg width="107px" height="117px" viewBox="0 0 107 117" version="1.1" xmlns="http://www.w3.org/2000/svg" xmlns:xlink="http://www.w3.org/1999/xlink">
    <title>Group 25</title>
    <defs>
        <filter id="filter-1">
            <feColorMatrix in="SourceGraphic" type="matrix" values="0 0 0 0 1.000000 0 0 0 0 1.000000 0 0 0 0 1.000000 0 0 0 1.000000 0"></feColorMatrix>
        </filter>
        <filter id="filter-2">
            <feColorMatrix in="SourceGraphic" type="matrix" values="0 0 0 0 0.177300 0 0 0 0 0.646187 0 0 0 0 0.704314 0 0 0 1.000000 0"></feColorMatrix>
        </filter>
        <filter id="filter-3">
            <feColorMatrix in="SourceGraphic" type="matrix" values="0 0 0 0 0.177300 0 0 0 0 0.646187 0 0 0 0 0.704314 0 0 0 1.000000 0"></feColorMatrix>
        </filter>
        <filter id="filter-4">
            <feColorMatrix in="SourceGraphic" type="matrix" values="0 0 0 0 0.177300 0 0 0 0 0.646187 0 0 0 0 0.704314 0 0 0 1.000000 0"></feColorMatrix>
        </filter>
        <filter id="filter-5">
            <feColorMatrix in="SourceGraphic" type="matrix" values="0 0 0 0 0.177300 0 0 0 0 0.646187 0 0 0 0 0.704314 0 0 0 1.000000 0"></feColorMatrix>
        </filter>
        <filter id="filter-6">
            <feColorMatrix in="SourceGraphic" type="matrix" values="0 0 0 0 0.177300 0 0 0 0 0.646187 0 0 0 0 0.704314 0 0 0 1.000000 0"></feColorMatrix>
        </filter>
        <filter id="filter-7">
            <feColorMatrix in="SourceGraphic" type="matrix" values="0 0 0 0 0.177300 0 0 0 0 0.646187 0 0 0 0 0.704314 0 0 0 1.000000 0"></feColorMatrix>
        </filter>
        <filter id="filter-8">
            <feColorMatrix in="SourceGraphic" type="matrix" values="0 0 0 0 0.177300 0 0 0 0 0.646187 0 0 0 0 0.704314 0 0 0 1.000000 0"></feColorMatrix>
        </filter>
        <filter x="-150.0%" y="-150.0%" width="400.0%" height="400.0%" filterUnits="objectBoundingBox" id="filter-9">
            <feOffset dx="0" dy="2" in="SourceAlpha" result="shadowOffsetOuter1"></feOffset>
            <feGaussianBlur stdDeviation="2" in="shadowOffsetOuter1" result="shadowBlurOuter1"></feGaussianBlur>
            <feColorMatrix values="0 0 0 0 0.0980392157   0 0 0 0 0.431372549   0 0 0 0 0.811764706  0 0 0 0.424388112 0" type="matrix" in="shadowBlurOuter1" result="shadowMatrixOuter1"></feColorMatrix>
            <feMerge>
                <feMergeNode in="shadowMatrixOuter1"></feMergeNode>
                <feMergeNode in="SourceGraphic"></feMergeNode>
            </feMerge>
        </filter>
    </defs>
    <g id="Page-1" stroke="none" stroke-width="1" fill="none" fill-rule="evenodd">
        <g id="Coalition-Landing-Page6-Copy-4" transform="translate(-163.000000, -521.000000)">
            <g id="Group-25" transform="translate(163.000000, 523.000000)">
                <circle id="Oval" fill="#F3F3F3" opacity="0.157589935" cx="48.5" cy="66.5" r="48.5"></circle>
                <g id="Select-rafiki" transform="translate(7.984898, 0.000000)">
                    <g id="freepik--Character--inject-44" transform="translate(61.496802, 11.159244)" fill-rule="nonzero">
                        <polygon id="Path" fill="#9F5B53" points="26.6619381 35.874051 28.0265002 37.9780059 30.0556843 37.5539781 28.524164 34.9386002"></polygon>
                        <path d="M30.530873,17.8415383 C30.8198391,18.1943554 31.0606442,18.5083302 31.3078707,18.8514367 C31.5550972,19.1945432 31.7926916,19.5247023 32.0270752,19.8678088 C32.4958424,20.5507849 32.9421345,21.2531822 33.3595299,21.9750006 C33.7769254,22.696819 34.1814779,23.4348217 34.5346587,24.2084298 C34.724092,24.5871417 34.8846288,24.9885115 35.0580084,25.3801709 C35.2313881,25.7718302 35.3790819,26.1829106 35.5043005,26.6069385 L35.607044,26.9306238 L35.6584157,27.0892297 C35.6873124,27.1830984 35.716209,27.2834409 35.7354734,27.3773097 C35.8061194,27.7132831 35.8298942,28.0575543 35.8061095,28.4001555 C35.7636918,28.9368755 35.6480875,29.4651389 35.462561,29.9700296 C35.14827,30.8114372 34.7457142,31.6165877 34.2617463,32.3717751 C33.360015,33.7736725 32.3139347,35.0756356 31.1409125,36.2559997 L29.7378216,35.1489957 C30.5093642,33.8216193 31.2144688,32.4561139 31.8504848,31.0576125 C32.1426375,30.4191729 32.375865,29.7549726 32.5472142,29.0734211 C32.6111762,28.8174796 32.6403396,28.5539621 32.633904,28.2901024 C32.633618,28.2342438 32.6215803,28.1790819 32.5985859,28.1282598 C32.5985859,28.1282598 32.5985859,28.1282598 32.5985859,28.1282598 L32.5472142,28.0052593 L32.4412599,27.7592584 C31.8401295,26.3975633 31.1314898,25.0867393 30.3221752,23.8394284 C29.9176227,23.1920577 29.4905951,22.5673449 29.0603566,21.9361584 C28.6301182,21.3049719 28.161351,20.6737854 27.7375341,20.1008623 L30.530873,17.8415383 Z" id="Path" fill="#9F5B53"></path>
                        <path d="M29.7378216,16.2490062 C31.9500176,16.7604291 34.4864977,22.8360037 34.4864977,22.8360037 L30.058895,25.9045412 C28.9535402,24.3077491 27.9724077,22.6271211 27.1242838,20.8777072 C25.8110935,18.0972497 27.4903075,15.7278727 29.7378216,16.2490062 Z" id="Path" fill="#407BFF"></path>
                        <path d="M29.7378216,16.2490062 C31.9500176,16.7604291 34.4864977,22.8360037 34.4864977,22.8360037 L30.058895,25.9045412 C28.9535402,24.3077491 27.9724077,22.6271211 27.1242838,20.8777072 C25.8110935,18.0972497 27.4903075,15.7278727 29.7378216,16.2490062 Z" id="Path" fill="#FFFFFF" opacity="0.8"></path>
                        <path d="M28.1645618,20.1235202 L30.264382,25.7588828 L30.0556843,25.9045412 C30.0556843,25.9045412 29.1470465,24.6097996 28.1645618,22.8845566 L28.1645618,20.1235202 Z" id="Path" fill="#407BFF"></path>
                        <path d="M28.1645618,20.1235202 L30.264382,25.7588828 L30.0556843,25.9045412 C30.0556843,25.9045412 29.1470465,24.6097996 28.1645618,22.8845566 L28.1645618,20.1235202 Z" id="Path" fill="#FFFFFF" opacity="0.6"></path>
                        <polygon id="Path" fill="#9F5B53" points="22.5586196 97.4098791 20.1987298 97.4098791 19.9643462 91.9039907 22.324236 91.9039907"></polygon>
                        <polygon id="Path" fill="#9F5B53" points="36.7211688 97.4098791 34.3612791 97.4098791 33.1765181 91.9039907 35.5331971 91.9039907"></polygon>
                        <polygon id="Path" fill="#8A4743" points="19.9643462 91.9072275 20.0863541 94.7427115 22.4462439 94.7427115 22.324236 91.9072275"></polygon>
                        <polygon id="Path" fill="#8A4743" points="35.5364078 91.9072275 33.1765181 91.9072275 33.7865576 94.7427115 36.1464474 94.7427115"></polygon>
                        <path d="M20.8697733,36.9260285 C20.8697733,36.9260285 23.5475258,55.0977258 25.0148314,61.9048294 C26.6201985,69.3495932 32.6884865,94.1956832 32.6884865,94.1956832 L37.0101349,94.1956832 C37.0101349,94.1956832 33.0095599,69.9613586 32.0912899,62.5683845 C31.0959622,54.5571712 29.0121956,36.913081 29.0121956,36.913081 L20.8697733,36.9260285 Z" id="Path" fill="#407BFF"></path>
                        <path d="M20.8697733,36.9260285 C20.8697733,36.9260285 23.5475258,55.0977258 25.0148314,61.9048294 C26.6201985,69.3495932 32.6884865,94.1956832 32.6884865,94.1956832 L37.0101349,94.1956832 C37.0101349,94.1956832 33.0095599,69.9613586 32.0912899,62.5683845 C31.0959622,54.5571712 29.0121956,36.913081 29.0121956,36.913081 L20.8697733,36.9260285 Z" id="Path" fill="#000000" opacity="0.5"></path>
                        <path d="M22.5618303,43.3997361 C25.6569782,44.0115015 25.3294833,55.647991 24.9570381,61.6329337 C24.064454,57.4023658 22.7576851,49.2616784 21.865101,43.4838943 C22.0810466,43.376623 22.3268598,43.3469312 22.5618303,43.3997361 L22.5618303,43.3997361 Z" id="Path" fill="#000000" opacity="0.4"></path>
                        <path d="M16.3940096,36.9260285 C16.3940096,36.9260285 16.0729362,54.7028297 16.3265842,61.9566191 C16.5930751,69.4984885 19.2162451,94.1956832 19.2162451,94.1956832 L23.2103987,94.1956832 C23.2103987,94.1956832 23.3580924,69.9387006 23.5314721,62.5327791 C23.7241161,54.4568288 24.6905472,36.9260285 24.6905472,36.9260285 L16.3940096,36.9260285 Z" id="Path" fill="#407BFF"></path>
                        <path d="M16.3940096,36.9260285 C16.3940096,36.9260285 16.0729362,54.7028297 16.3265842,61.9566191 C16.5930751,69.4984885 19.2162451,94.1956832 19.2162451,94.1956832 L23.2103987,94.1956832 C23.2103987,94.1956832 23.3580924,69.9387006 23.5314721,62.5327791 C23.7241161,54.4568288 24.6905472,36.9260285 24.6905472,36.9260285 L16.3940096,36.9260285 Z" id="Path" fill="#000000" opacity="0.5"></path>
                        <path d="M30.2483284,34.6408096 L28.524164,34.9386002 L30.0556843,37.5539781 C30.0556843,37.5539781 31.2564989,36.9713444 31.4748289,35.8416824 L30.2483284,34.6408096 Z" id="Path" fill="#9F5B53"></path>
                        <path d="M18.8534321,7.41239526 C18.8534321,7.60336964 18.7538994,7.75873862 18.6286807,7.75873862 C18.5034621,7.75873862 18.4039293,7.60336964 18.4039293,7.41239526 C18.4039293,7.22142089 18.5034621,7.0660519 18.6286807,7.0660519 C18.7538994,7.0660519 18.8534321,7.21818403 18.8534321,7.41239526 Z" id="Path" fill="#263238"></path>
                        <path d="M19.5276863,6.35070721 C19.504306,6.35099296 19.4815722,6.3429714 19.4634717,6.32804923 C19.2370455,6.1525117 18.9403759,6.09824261 18.6672095,6.18239081 C18.6399702,6.19285155 18.6097124,6.19189545 18.5831764,6.17973549 C18.5566403,6.16757553 18.5360302,6.14522176 18.5259372,6.11765373 C18.5143753,6.09022921 18.5143388,6.05925023 18.5258362,6.03179812 C18.5373335,6.00434601 18.5593818,5.98276758 18.5869412,5.97199531 C18.9300771,5.86039423 19.3056942,5.92572435 19.591901,6.14678542 C19.6168061,6.1631126 19.633768,6.18923056 19.638652,6.2187726 C19.6435359,6.24831463 19.6358932,6.27856672 19.6175869,6.3021544 C19.5982655,6.33324895 19.5640682,6.35171796 19.5276863,6.35070721 Z" id="Path" fill="#263238"></path>
                        <path d="M24.995567,9.62316643 C24.6552291,11.3645938 24.318102,14.5496579 25.5253381,15.7116885 C25.5253381,15.7116885 25.0533602,17.4757738 21.8458366,17.4757738 C18.3140288,17.4757738 20.1634117,15.7116885 20.1634117,15.7116885 C22.0898524,15.2488184 22.0384806,13.8084184 21.7013535,12.4586504 L24.995567,9.62316643 Z" id="Path" fill="#9F5B53"></path>
                        <path d="M25.9876839,16.3169801 C26.2413319,15.7602413 26.517455,15.1193442 25.9427336,14.9186593 C25.3005867,14.6985532 21.8426258,14.4752103 20.6482326,14.8862907 C20.3299871,14.9752186 20.0602702,15.1888282 19.8992241,15.4794885 C19.7381779,15.7701487 19.6991946,16.1136894 19.7909666,16.4335069 L25.9876839,16.3169801 Z" id="Path" fill="#407BFF"></path>
                        <path d="M33.4141124,97.9489742 C33.2126814,97.9962047 33.0089478,97.8983538 32.8490232,97.6775682 C32.79068,97.5380035 32.79068,97.3478268 32.8490232,97.208262 C32.8847879,97.0900586 32.9481414,97.0053485 33.0224028,96.9764361 C33.3691622,96.8407331 34.0177305,97.6210253 34.0466271,97.6549511 C34.0646944,97.678328 34.0734545,97.7179973 34.0691022,97.7567283 C34.0653691,97.7942666 34.0486785,97.8236599 34.0273627,97.8302341 C33.8258076,97.9068376 33.6203036,97.9466281 33.4141124,97.9489742 L33.4141124,97.9489742 Z M33.1219356,97.1573734 L33.0512995,97.1573734 C33.007285,97.173405 32.9696192,97.2231537 32.948556,97.2930764 C32.8971842,97.4513966 32.9292915,97.5192481 32.948556,97.5418652 C33.0480887,97.7793455 33.5296989,97.7793455 33.8828796,97.6775682 C33.6539384,97.4101842 33.3939502,97.2363153 33.1219356,97.168682 L33.1219356,97.1573734 Z" id="Shape" fill="#407BFF"></path>
                        <path d="M34.2596536,97.4681424 L34.2250516,97.4681424 C33.8963327,97.3321946 33.2605212,96.8207717 33.3254,96.5488759 C33.3481589,96.4622783 33.4496809,96.39987 33.5676139,96.3999807 C33.6827393,96.3906986 33.7980309,96.4163494 33.8876822,96.4711914 C34.2553284,96.6977712 34.3202071,97.3839842 34.3202071,97.4131159 C34.3238502,97.4340426 34.3101616,97.4545306 34.2856051,97.4649056 C34.2773761,97.4673948 34.2685165,97.4684999 34.2596536,97.4681424 L34.2596536,97.4681424 Z M33.6195169,96.4970863 L33.5849149,96.4970863 C33.4854342,96.4970863 33.4767837,96.5424022 33.4724584,96.5553496 C33.4335312,96.7139555 33.8401045,97.1056148 34.1644981,97.2901155 C34.1418576,97.0198498 34.012385,96.7607188 33.7925268,96.5456391 C33.7428382,96.517427 33.6818745,96.5025995 33.6195169,96.50356 L33.6195169,96.4970863 Z" id="Shape" fill="#407BFF"></path>
                        <path d="M19.2515632,97.9539689 C18.9497542,97.9539689 18.6575773,97.8804602 18.5580446,97.6429705 C18.5074499,97.5135789 18.5074499,97.3426188 18.5580446,97.2132272 C18.5954914,97.0952109 18.6597196,97.0108893 18.734635,96.9813921 C19.1231338,96.794793 19.9515033,97.6203524 19.9868214,97.6542795 C20.0060995,97.6762144 20.0161806,97.7161612 20.0125072,97.7560608 C20.0097063,97.7975672 19.991125,97.8302913 19.967557,97.8352241 C19.7314956,97.913772 19.4918009,97.9535245 19.2515632,97.9539689 Z M18.8759073,97.1510276 C18.8407729,97.1420568 18.8050875,97.1420568 18.769953,97.1510276 C18.7242631,97.1668691 18.6845641,97.2162209 18.6607881,97.286736 C18.6222593,97.4111353 18.6351022,97.4676805 18.6607881,97.5016076 C18.769953,97.7617153 19.3639389,97.7786789 19.8070202,97.6712431 C19.5183498,97.3967695 19.2020935,97.2239173 18.8759073,97.1623366 L18.8759073,97.1510276 Z" id="Shape" fill="#407BFF"></path>
                        <path d="M20.0582362,97.4681424 L20.0332204,97.4681424 C19.7151626,97.3419051 19.0897678,96.8207717 19.1362257,96.5585865 C19.1362257,96.4938494 19.1969784,96.4161649 19.3685152,96.3999807 C19.4976845,96.382216 19.6288414,96.4178545 19.7258836,96.4970863 C20.0618099,96.7430872 20.1297099,97.3839842 20.1332836,97.4131159 C20.1361206,97.4332357 20.1265074,97.4531377 20.1082678,97.4649056 C20.0928837,97.4724609 20.0746498,97.4736406 20.0582362,97.4681424 Z M19.4185468,96.4970863 L19.3792363,96.4970863 C19.268452,96.4970863 19.2613047,96.5488759 19.257731,96.5618233 C19.2291415,96.723666 19.6579836,97.1282728 19.9724678,97.3030629 C19.9415827,97.0311663 19.8164874,96.7750975 19.6150994,96.5715339 C19.5602939,96.5288759 19.4907948,96.504841 19.4185468,96.50356 L19.4185468,96.4970863 Z" id="Shape" fill="#407BFF"></path>
                        <path d="M34.1943209,97.1347345 L36.8431767,97.1347345 C36.9405456,97.1354635 37.0244833,97.2039658 37.045453,97.299826 L37.5110095,99.4134916 C37.5325537,99.5177608 37.5057717,99.6262438 37.4382607,99.7081682 C37.3707496,99.7900926 37.2698747,99.8365206 37.1642502,99.8342826 C36.2395587,99.8180983 35.7900559,99.7630718 34.6245593,99.7630718 C33.9085655,99.7630718 32.4316277,99.8407563 31.4395108,99.8407563 C30.4473939,99.8407563 30.3221752,98.8697001 30.7267278,98.762884 C32.5440034,98.3615141 33.2278898,97.8080121 33.8122435,97.2836418 C33.9163091,97.187031 34.0528556,97.1338189 34.1943209,97.1347345 Z" id="Path" fill="#263238"></path>
                        <path d="M20.2147835,97.1347465 L22.783371,97.1347465 C22.8807399,97.1354635 22.9646775,97.2039658 22.9856472,97.299826 L23.4512037,99.4134916 C23.4737704,99.5168058 23.4482628,99.6248523 23.3819499,99.706841 C23.3156369,99.7888298 23.2157913,99.8357691 23.1108659,99.8342826 C22.1829637,99.8180983 20.8408767,99.7630718 19.6721694,99.7630718 C18.3076073,99.7630718 17.126057,99.8407563 15.5239006,99.8407563 C14.5606803,99.8407563 14.2877679,98.8697001 14.6923204,98.762884 C16.5384927,98.3550404 18.0443271,98.3129613 19.640062,97.322484 C19.8099904,97.2060007 20.0093837,97.1408672 20.2147835,97.1347465 Z" id="Path" fill="#263238"></path>
                        <path d="M16.8467232,21.1139975 C15.9123995,22.5058447 14.9459684,23.803823 13.9024798,25.0920909 C12.8602247,26.3935629 11.7453689,27.6342034 10.563316,28.8079991 L10.1009703,29.2482112 L9.98217311,29.3582642 L9.90190475,29.4327118 L9.78310758,29.5362912 C9.6306009,29.6574379 9.46844447,29.7656998 9.29828669,29.8599765 C8.75627774,30.1473885 8.15975816,30.3151107 7.54843647,30.3519783 C6.61546493,30.4105305 5.67899356,30.3331283 4.76794052,30.1221617 C3.11722106,29.7535543 1.5164285,29.1862739 0,28.432524 L0.587564387,26.74936 C2.0921773,27.0511084 3.61369911,27.259736 5.14359644,27.3740728 C5.8155267,27.4292252 6.49163281,27.4009608 7.15672688,27.2899146 C7.34756058,27.2620733 7.52972654,27.1912693 7.68970878,27.082756 C7.68970878,27.082756 7.68970878,27.060098 7.68970878,27.060098 L7.68970878,27.060098 L7.71218392,27.0342032 L7.80850595,26.927387 L8.18737261,26.506596 C9.19233246,25.3510392 10.165185,24.1242716 11.1091409,22.8651354 C12.0530968,21.6059993 12.9970527,20.3242052 13.899269,19.065069 L16.8467232,21.1139975 Z" id="Path" fill="#9F5B53"></path>
                        <path d="M17.9351621,21.4862357 C17.6068808,23.4943445 16.7459754,25.3755596 15.4436322,26.9306238 C15.3922605,25.7912513 15.3729961,24.7684055 15.3762068,23.8523758 L17.9351621,21.4862357 Z" id="Path" fill="#BED3FC"></path>
                        <path d="M25.1978432,7.00455168 C25.0565709,9.36098127 25.091889,10.7463547 23.9135495,11.956938 C22.1380134,13.7760499 19.2547739,12.6949407 18.6961061,10.3385111 C18.1952316,8.22160872 18.5130943,4.72580659 20.8023479,3.78711898 C21.8261431,3.36299604 22.9948172,3.50394126 23.8904862,4.15955673 C24.7861552,4.81517221 25.2809109,5.89183114 25.1978432,7.00455168 Z" id="Path" fill="#9F5B53"></path>
                        <path d="M20.6578648,5.43791443 C20.6771292,8.2086613 21.5697134,11.6073578 24.2282014,11.3710675 C25.9941053,11.2156985 27.3361923,7.96913412 27.5192042,6.59347124 C27.798538,4.48951626 27.8402776,4.08814638 26.6651488,3.84538235 C27.1788663,3.56377606 27.3650889,2.22695543 26.1642743,1.90327005 C24.4946924,1.45982108 21.3481727,1.02608266 22.3370789,-4.59984595e-15 C20.365688,0.359290775 19.8712349,1.15555682 20.2308372,2.12337611 C19.0781835,2.0327442 18.3686112,1.42421568 18.4039293,0.504949197 C16.4935424,1.28503097 15.2541989,5.69686273 20.6578648,5.43791443 Z" id="Path" fill="#263238"></path>
                        <path d="M22.0320591,7.69076469 C21.9018445,8.26217397 21.5880639,8.7742242 21.139475,9.14734891 C20.5454891,9.63287699 20.0703005,9.19913857 20.0831434,8.49997815 C20.0831434,7.86879165 20.4234812,6.8556564 21.091314,6.64202405 C21.7591467,6.4283917 22.1958066,7.00131483 22.0320591,7.69076469 Z" id="Path" fill="#9F5B53"></path>
                        <path d="M28.4535279,4.32767357 C27.8151597,3.91787045 27.0150743,3.85947449 26.324811,4.17230458 C26.324811,4.17230458 27.6604765,2.36290329 28.4535279,4.32767357 Z" id="Path" fill="#263238"></path>
                        <path d="M31.9853356,92.5902037 C31.9660712,92.5902037 32.4316277,94.2636571 32.4316277,94.2636571 L37.2926795,94.2636571 L37.202779,92.7714675 L31.9853356,92.5902037 Z" id="Path" fill="#407BFF"></path>
                        <path d="M18.4392474,92.5902037 C18.419983,92.5902037 18.6639988,94.2636571 18.6639988,94.2636571 L23.5250506,94.2636571 L23.6566907,92.7714675 L18.4392474,92.5902037 Z" id="Path" fill="#407BFF"></path>
                        <path d="M20.0381931,91.3019361 C20.0181075,91.3019361 20.001338,91.2865092 19.9996643,91.2663305 C19.2933027,84.4300952 17.6333531,67.8897722 17.4310768,61.9566191 C17.2159576,55.9004656 17.4118124,42.3121532 17.4760271,38.2919808 C17.4760271,38.2693228 17.4952915,38.2563754 17.5177666,38.2531385 C17.5383772,38.2546839 17.5547626,38.2712025 17.5562955,38.2919808 C17.4920808,42.3121532 17.296226,55.9004656 17.5113452,61.9533822 C17.7200429,67.8865353 19.3799926,84.4203846 20.0799351,91.2566199 C20.0801635,91.2793227 20.0636938,91.2986936 20.0414038,91.3019361 L20.0381931,91.3019361 Z" id="Path" fill="#407BFF"></path>
                        <path d="M20.0381931,91.3019361 C20.0181075,91.3019361 20.001338,91.2865092 19.9996643,91.2663305 C19.2933027,84.4300952 17.6333531,67.8897722 17.4310768,61.9566191 C17.2159576,55.9004656 17.4118124,42.3121532 17.4760271,38.2919808 C17.4760271,38.2693228 17.4952915,38.2563754 17.5177666,38.2531385 C17.5383772,38.2546839 17.5547626,38.2712025 17.5562955,38.2919808 C17.4920808,42.3121532 17.296226,55.9004656 17.5113452,61.9533822 C17.7200429,67.8865353 19.3799926,84.4203846 20.0799351,91.2566199 C20.0801635,91.2793227 20.0636938,91.2986936 20.0414038,91.3019361 L20.0381931,91.3019361 Z" id="Path" fill="#000000" opacity="0.3"></path>
                        <path d="M19.0236011,18.2979347 C19.3446745,20.5637324 14.9331255,26.3026742 14.9331255,26.3026742 L10.5119443,23.2341368 C10.5119443,23.2341368 11.7384448,20.0652569 13.802947,17.9871967 C16.159626,15.634004 18.6832632,15.8476363 19.0236011,18.2979347 Z" id="Path" fill="#407BFF"></path>
                        <path d="M19.0236011,18.2979347 C19.3446745,20.5637324 14.9331255,26.3026742 14.9331255,26.3026742 L10.5119443,23.2341368 C10.5119443,23.2341368 11.7384448,20.0652569 13.802947,17.9871967 C16.159626,15.634004 18.6832632,15.8476363 19.0236011,18.2979347 Z" id="Path" fill="#FFFFFF" opacity="0.8"></path>
                        <path d="M16.5352819,16.3720067 C16.5352819,16.3720067 14.0244877,19.2301486 16.3940096,36.9260285 L29.0121956,36.9260285 C29.0988855,34.9839162 27.8820171,25.4481448 29.7474538,16.2490062 C28.3530461,15.9783109 26.9427299,15.7988303 25.5253381,15.7116885 C23.739508,15.608034 21.9492418,15.608034 20.1634117,15.7116885 C18.938805,15.836075 17.7257275,16.0568547 16.5352819,16.3720067 L16.5352819,16.3720067 Z" id="Path" fill="#407BFF"></path>
                        <path d="M16.5352819,16.3720067 C16.5352819,16.3720067 14.0244877,19.2301486 16.3940096,36.9260285 L29.0121956,36.9260285 C29.0988855,34.9839162 27.8820171,25.4481448 29.7474538,16.2490062 C28.3530461,15.9783109 26.9427299,15.7988303 25.5253381,15.7116885 C23.739508,15.608034 21.9492418,15.608034 20.1634117,15.7116885 C18.938805,15.836075 17.7257275,16.0568547 16.5352819,16.3720067 L16.5352819,16.3720067 Z" id="Path" fill="#FFFFFF" opacity="0.8"></path>
                    </g>
                    <g filter="url(#filter-1)" id="freepik--Buttons--inject-44" opacity="0.34556686">
                        <g>
                            <ellipse id="Oval" fill="#407BFF" fill-rule="nonzero" transform="translate(32.629639, 10.788940) rotate(-77.210000) translate(-32.629639, -10.788940) " cx="32.6296386" cy="10.7889396" rx="8.3057305" ry="8.2452538"></ellipse>
                            <ellipse id="Oval" fill="#FFFFFF" fill-rule="nonzero" opacity="0.2" transform="translate(32.629639, 10.788940) rotate(-77.210000) translate(-32.629639, -10.788940) " cx="32.6296386" cy="10.7889396" rx="8.3057305" ry="8.2452538"></ellipse>
                            <path d="M31.7833507,21.563808 C27.4212263,21.2241478 23.7065482,18.2349013 22.4112172,14.0219386 L22.7162369,13.924833 C23.9736189,18.0114858 27.5774193,20.9107957 31.8090366,21.2401226 L31.7833507,21.563808 Z" id="Path" fill="#407BFF" fill-rule="nonzero"></path>
                            <path d="M31.7833507,21.563808 C27.4212263,21.2241478 23.7065482,18.2349013 22.4112172,14.0219386 L22.7162369,13.924833 C23.9736189,18.0114858 27.5774193,20.9107957 31.8090366,21.2401226 L31.7833507,21.563808 Z" id="Path" fill="#FFFFFF" fill-rule="nonzero" opacity="0.2"></path>
                            <path d="M22.6712867,7.79746868 L22.3502132,7.70683678 C23.1864837,4.88977708 25.1255332,2.5380199 27.7199265,1.19423256 C30.3143199,-0.149554781 33.3399226,-0.369280029 36.0985777,0.585758358 L35.9958342,0.893259471 C33.3180082,-0.0322239233 30.3817077,0.182428478 27.8643351,1.48769651 C25.3469625,2.79296454 23.4659454,5.0761112 22.655233,7.8104161 L22.6712867,7.79746868 Z" id="Path" fill="#407BFF" fill-rule="nonzero"></path>
                            <path d="M22.6712867,7.79746868 L22.3502132,7.70683678 C23.1864837,4.88977708 25.1255332,2.5380199 27.7199265,1.19423256 C30.3143199,-0.149554781 33.3399226,-0.369280029 36.0985777,0.585758358 L35.9958342,0.893259471 C33.3180082,-0.0322239233 30.3817077,0.182428478 27.8643351,1.48769651 C25.3469625,2.79296454 23.4659454,5.0761112 22.655233,7.8104161 L22.6712867,7.79746868 Z" id="Path" fill="#FFFFFF" fill-rule="nonzero" opacity="0.2"></path>
                            <path d="M42.5553645,7.65828397 C41.8046939,5.23821238 40.2072026,3.17563864 38.0603364,1.85460506 L38.2272946,1.57623563 C40.4383137,2.94046351 42.0833621,5.06698136 42.8571735,7.56117835 L42.5553645,7.65828397 Z" id="Path" fill="#407BFF" fill-rule="nonzero"></path>
                            <path d="M42.5553645,7.65828397 C41.8046939,5.23821238 40.2072026,3.17563864 38.0603364,1.85460506 L38.2272946,1.57623563 C40.4383137,2.94046351 42.0833621,5.06698136 42.8571735,7.56117835 L42.5553645,7.65828397 Z" id="Path" fill="#FFFFFF" fill-rule="nonzero" opacity="0.2"></path>
                            <ellipse id="Oval" fill="#407BFF" fill-rule="nonzero" transform="translate(32.633355, 33.724988) rotate(-77.210000) translate(-32.633355, -33.724988) " cx="32.6333547" cy="33.724988" rx="8.3057305" ry="8.2452538"></ellipse>
                            <ellipse id="Oval" fill="#FFFFFF" fill-rule="nonzero" opacity="0.6" transform="translate(32.633355, 33.724988) rotate(-77.210000) translate(-32.633355, -33.724988) " cx="32.6333547" cy="33.724988" rx="8.3057305" ry="8.2452538"></ellipse>
                            <ellipse id="Oval" fill="#407BFF" fill-rule="nonzero" transform="translate(32.630729, 56.660320) rotate(-77.210000) translate(-32.630729, -56.660320) " cx="32.630729" cy="56.6603199" rx="8.3057305" ry="8.2452538"></ellipse>
                            <ellipse id="Oval" fill="#FFFFFF" fill-rule="nonzero" opacity="0.6" transform="translate(32.630729, 56.660320) rotate(-77.210000) translate(-32.630729, -56.660320) " cx="32.630729" cy="56.6603199" rx="8.3057305" ry="8.2452538"></ellipse>
                            <ellipse id="Oval" fill="#407BFF" fill-rule="nonzero" transform="translate(32.631234, 79.599605) rotate(-77.210000) translate(-32.631234, -79.599605) " cx="32.6312344" cy="79.5996052" rx="8.3057305" ry="8.2452538"></ellipse>
                            <ellipse id="Oval" fill="#FFFFFF" fill-rule="nonzero" opacity="0.6" transform="translate(32.631234, 79.599605) rotate(-77.210000) translate(-32.631234, -79.599605) " cx="32.6312344" cy="79.5996052" rx="8.3057305" ry="8.2452538"></ellipse>
                            <ellipse id="Oval" fill="#407BFF" fill-rule="nonzero" transform="translate(9.879381, 10.786293) rotate(-77.210000) translate(-9.879381, -10.786293) " cx="9.87938111" cy="10.7862925" rx="8.3057305" ry="8.2452538"></ellipse>
                            <ellipse id="Oval" fill="#FFFFFF" fill-rule="nonzero" opacity="0.6" transform="translate(9.879381, 10.786293) rotate(-77.210000) translate(-9.879381, -10.786293) " cx="9.87938111" cy="10.7862925" rx="8.3057305" ry="8.2452538"></ellipse>
                            <ellipse id="Oval" fill="#407BFF" fill-rule="nonzero" transform="translate(9.883097, 33.725578) rotate(-77.210000) translate(-9.883097, -33.725578) " cx="9.88309723" cy="33.7255778" rx="8.3057305" ry="8.2452538"></ellipse>
                            <ellipse id="Oval" fill="#FFFFFF" fill-rule="nonzero" opacity="0.6" transform="translate(9.883097, 33.725578) rotate(-77.210000) translate(-9.883097, -33.725578) " cx="9.88309723" cy="33.7255778" rx="8.3057305" ry="8.2452538"></ellipse>
                            <ellipse id="Oval" fill="#407BFF" fill-rule="nonzero" transform="translate(9.880472, 56.660910) rotate(-77.210000) translate(-9.880472, -56.660910) " cx="9.88047155" cy="56.6609097" rx="8.3057305" ry="8.2452538"></ellipse>
                            <ellipse id="Oval" fill="#FFFFFF" fill-rule="nonzero" opacity="0.6" transform="translate(9.880472, 56.660910) rotate(-77.210000) translate(-9.880472, -56.660910) " cx="9.88047155" cy="56.6609097" rx="8.3057305" ry="8.2452538"></ellipse>
                            <ellipse id="Oval" fill="#407BFF" fill-rule="nonzero" transform="translate(9.880977, 79.596958) rotate(-77.210000) translate(-9.880977, -79.596958) " cx="9.88097693" cy="79.5969581" rx="8.3057305" ry="8.2452538"></ellipse>
                            <ellipse id="Oval" fill="#FFFFFF" fill-rule="nonzero" opacity="0.6" transform="translate(9.880977, 79.596958) rotate(-77.210000) translate(-9.880977, -79.596958) " cx="9.88097693" cy="79.5969581" rx="8.3057305" ry="8.2452538"></ellipse>
                        </g>
                    </g>
                </g>
                <g filter="url(#filter-2)" id="Group-23" opacity="0.75331577">
                    <g transform="translate(14.000000, 7.000000)">
                        <ellipse id="Oval" fill="#196ECF" cx="3.91954014" cy="2.38835991" rx="2.33333333" ry="2.38835991"></ellipse>
                        <ellipse id="Oval" fill="#196ECF" cx="4" cy="6.29402863" rx="4" ry="1.70597137"></ellipse>
                    </g>
                </g>
                <g filter="url(#filter-3)" id="Group-23-Copy-2" opacity="0.75331577">
                    <g transform="translate(14.000000, 30.000000)">
                        <ellipse id="Oval" fill="#196ECF" cx="3.91954014" cy="2.38835991" rx="2.33333333" ry="2.38835991"></ellipse>
                        <ellipse id="Oval" fill="#196ECF" cx="4" cy="6.29402863" rx="4" ry="1.70597137"></ellipse>
                    </g>
                </g>
                <g filter="url(#filter-4)" id="Group-23-Copy-3" opacity="0.75331577">
                    <g transform="translate(37.000000, 30.000000)">
                        <ellipse id="Oval" fill="#196ECF" cx="3.91954014" cy="2.38835991" rx="2.33333333" ry="2.38835991"></ellipse>
                        <ellipse id="Oval" fill="#196ECF" cx="4" cy="6.29402863" rx="4" ry="1.70597137"></ellipse>
                    </g>
                </g>
                <g filter="url(#filter-5)" id="Group-23-Copy-5" opacity="0.75331577">
                    <g transform="translate(14.000000, 53.000000)">
                        <ellipse id="Oval" fill="#196ECF" cx="3.91954014" cy="2.38835991" rx="2.33333333" ry="2.38835991"></ellipse>
                        <ellipse id="Oval" fill="#196ECF" cx="4" cy="6.29402863" rx="4" ry="1.70597137"></ellipse>
                    </g>
                </g>
                <g filter="url(#filter-6)" id="Group-23-Copy-4" opacity="0.75331577">
                    <g transform="translate(37.000000, 53.000000)">
                        <ellipse id="Oval" fill="#196ECF" cx="3.91954014" cy="2.38835991" rx="2.33333333" ry="2.38835991"></ellipse>
                        <ellipse id="Oval" fill="#196ECF" cx="4" cy="6.29402863" rx="4" ry="1.70597137"></ellipse>
                    </g>
                </g>
                <g filter="url(#filter-7)" id="Group-23-Copy-7" opacity="0.75331577">
                    <g transform="translate(14.000000, 76.000000)">
                        <ellipse id="Oval" fill="#196ECF" cx="3.91954014" cy="2.38835991" rx="2.33333333" ry="2.38835991"></ellipse>
                        <ellipse id="Oval" fill="#196ECF" cx="4" cy="6.29402863" rx="4" ry="1.70597137"></ellipse>
                    </g>
                </g>
                <g filter="url(#filter-8)" id="Group-23-Copy-6" opacity="0.75331577">
                    <g transform="translate(37.000000, 76.000000)">
                        <ellipse id="Oval" fill="#196ECF" cx="3.91954014" cy="2.38835991" rx="2.33333333" ry="2.38835991"></ellipse>
                        <ellipse id="Oval" fill="#196ECF" cx="4" cy="6.29402863" rx="4" ry="1.70597137"></ellipse>
                    </g>
                </g>
                <g id="Group-23-Copy" filter="url(#filter-9)" transform="translate(37.000000, 7.000000)" fill="#002677">
                    <ellipse id="Oval" cx="3.91954014" cy="2.38835991" rx="2.33333333" ry="2.38835991"></ellipse>
                    <ellipse id="Oval" cx="4" cy="6.29402863" rx="4" ry="1.70597137"></ellipse>
                </g>
                <g id="freepik--Hand--inject-44" transform="translate(41.000000, 11.000000)" fill-rule="nonzero">
                    <path d="M28,25.5637308 L26.3871933,24.1923077 L24.6666667,26.0159564 C24.6666667,26.0159564 25.9772591,27.0531258 27.5362059,26.7532806 L28,25.5637308 Z" id="Path" fill="#9F5B53"></path>
                    <polygon id="Path" fill="#9F5B53" points="23.9979737 22.8846154 23.3333333 24.8261891 24.4464708 25.5 26 23.6482678"></polygon>
                    <path d="M5.59333628,21.9635792 C6.3090415,21.6791312 7.11515696,21.7173904 7.7998225,22.0683016 L6.16253184,21.2291325 C4.9056264,20.603149 4.34742146,19.1305082 4.87998749,17.8455596 C5.17374758,17.1852961 5.73161368,16.6742811 6.42118246,16.4337983 C7.11075125,16.1933154 7.87054329,16.2448053 8.52023039,16.5760473 L6.88293973,15.7395679 C5.62459682,15.1134656 5.06614353,13.6389984 5.60039538,12.3533053 C5.89355873,11.6871056 6.45541824,11.1716652 7.15058824,10.9311848 C7.84575824,10.6907043 8.6111986,10.7469913 9.26246882,11.0864827 L1.488067,7.0789122 C0.306535373,6.49683687 -0.271581204,5.15548646 0.123658116,3.91320049 C0.371282282,3.1927515 0.925579905,2.61469991 1.64140363,2.33041324 C2.35722735,2.04612658 3.16328156,2.08391962 3.84849437,2.43389595 L20.221401,10.8713111 C20.1096867,10.4194287 20.025901,10.0805168 19.9700438,9.85457558 C19.6523561,8.56953424 19.1758246,6.64197222 18.5404492,4.07188952 C18.1968592,2.65455974 19.0248819,1.21691043 20.4357141,0.781247553 C21.8465463,0.345584676 23.3588001,1.06056013 23.8971185,2.41775808 L29.2674319,16.1672214 C29.7273317,17.3423938 30.6050497,18.3126642 31.737012,18.8972106 L32.6729964,19.378657 C32.962713,19.5275157 33.1802995,19.7840351 33.2776056,20.0914493 C33.3749116,20.3988634 33.3439138,20.7318245 33.1914718,21.0166506 L26.6423092,33.3486712 C26.326609,33.9420026 25.583392,34.1717508 24.9804592,33.8623933 L22.6827946,32.6789497 C21.8125087,32.2387522 20.83726,32.0398091 19.861197,32.1033657 C17.5012382,32.2333366 15.1495749,31.7314647 13.0555255,30.6509576 L5.41483577,26.7133179 C4.24382223,26.1222188 3.67822708,24.7831391 4.07771506,23.5476062 C4.32391552,22.826734 4.87763105,22.2480271 5.59333628,21.9635792 Z" id="Path" fill="#407BFF"></path>
                    <path d="M25.8423584,33.9999348 C25.5793935,33.9999348 25.3202736,33.9376147 25.0871114,33.8177229 L22.7996368,32.6391367 C21.9981684,32.2345221 21.1012153,32.0495073 20.2024567,32.1034157 C17.7797253,32.2373808 15.3653489,31.7227767 13.2150641,30.6141113 L5.60826027,26.6926337 C4.26264312,26.0138056 3.61135136,24.475804 4.06788251,23.0550881 C4.35040059,22.2243375 4.98926717,21.5581866 5.81473066,21.2336367 C5.92519599,21.1885534 6.03865676,21.1509653 6.15432012,21.1211353 C4.84161416,20.3452797 4.30306745,18.7386305 4.88833063,17.3443023 C5.22042348,16.5797546 5.86476887,15.9892018 6.66234594,15.7183891 C6.73569727,15.6942816 6.80904859,15.6701742 6.88239991,15.651424 C5.56872599,14.8763325 5.02990805,13.2688742 5.61641042,11.8745909 C5.94912493,11.1110617 6.59338184,10.5215627 7.39042573,10.2513563 C7.45834363,10.2272489 7.52897823,10.20582 7.59689612,10.1870698 L1.68532289,7.13881734 C0.339705738,6.45998932 -0.311586025,4.92198773 0.144945121,3.50127178 C0.429634813,2.67291385 1.06678475,2.00829583 1.88957595,1.68142841 C2.71236715,1.35456098 3.63886343,1.39799467 4.42648897,1.80035762 L19.9362186,9.80402929 L18.4719088,3.89234811 C18.0821728,2.27572478 19.0285491,0.637603067 20.6376503,0.14357735 C22.2467514,-0.350448366 23.9690628,0.468333656 24.5790856,2.01732463 L29.925582,15.7103533 C30.3479317,16.7899088 31.1542404,17.6810678 32.1940395,18.2175275 L33.1231563,18.6969978 C33.5073264,18.8943532 33.7960209,19.2343654 33.9254913,19.6419541 C34.0549617,20.0495428 34.014558,20.4911806 33.8132021,20.8693464 L27.2930845,33.1534289 C27.0064981,33.6793497 26.4478505,34.0052976 25.8423584,33.9999348 L25.8423584,33.9999348 Z M20.5094456,31.2971556 C21.4371447,31.2921725 22.3523488,31.5081153 23.1772603,31.9266278 L25.4647349,33.105214 C25.6569043,33.2057596 25.8818679,33.2263811 26.0895427,33.1624874 C26.2972176,33.0985938 26.4703651,32.9554887 26.5704382,32.7650311 L33.0905557,20.4809487 C33.1914641,20.2914077 33.2114992,20.0700033 33.1462175,19.8658424 C33.0809357,19.6616816 32.9357334,19.491641 32.7428161,19.3934351 L31.8136993,18.9139648 C30.6022708,18.2876764 29.6635818,17.2478938 29.1730517,15.9889282 L23.8238386,2.29589954 C23.3778894,1.12500778 22.0820654,0.50138012 20.8714794,0.875048526 C19.6608934,1.24871693 18.957067,2.48957143 19.2679065,3.70216716 L20.9468368,10.4763591 C20.9848807,10.6290049 20.9285102,10.7894521 20.8028509,10.8861857 C20.67744,10.9850096 20.504425,11.0008048 20.3627429,10.9263648 L4.06244907,2.52358097 C3.48754262,2.22887483 2.81072784,2.19658514 2.20964901,2.435187 C1.60054877,2.66917069 1.13061523,3.16104035 0.930075941,3.77448949 C0.594917417,4.82371611 1.08032015,5.9578237 2.07652994,6.45309447 L9.81916952,10.4442159 C10.0187228,10.5470309 10.0959588,10.7898795 9.99168092,10.9866334 C9.88740309,11.1833873 9.64109932,11.2595398 9.44154604,11.1567248 C8.8952524,10.8771693 8.25583398,10.8335229 7.67568088,11.0361876 C7.09287522,11.234143 6.62151553,11.6648608 6.3770908,12.2228096 C5.92864467,13.3083792 6.40173194,14.5514703 7.46377706,15.0782025 L9.09380644,15.9139272 L9.09380644,15.9139272 C9.27563437,16.0248721 9.33956494,16.255517 9.24023993,16.4422212 C9.14091492,16.6289254 8.91211987,16.7081814 8.71618297,16.6237576 L8.71618297,16.6237576 C8.1705533,16.3452842 7.53242216,16.3016585 6.95303452,16.5032203 C6.37005199,16.7023656 5.89881263,17.1339454 5.65444444,17.6925209 C5.20767494,18.7773471 5.68051429,20.0186213 6.7411307,20.5452352 L8.37116008,21.38096 L8.37116008,21.38096 C8.57071334,21.483775 8.64794932,21.7266236 8.54367148,21.9233775 C8.43939365,22.1201314 8.19308988,22.1962839 7.99353661,22.0934689 L7.99353661,22.0934689 C7.41784368,21.8010472 6.74167081,21.7697657 6.14073654,22.0077536 C5.53399879,22.2443275 5.06586714,22.7353536 4.86388019,23.347056 L4.86388019,23.347056 C4.52751513,24.3963384 5.01324211,25.5312036 6.01033419,26.025661 L13.617138,29.9471387 C15.6326686,30.9744135 17.8910754,31.4489919 20.1562725,31.3212631 C20.275808,31.3212631 20.3926268,31.3025128 20.5094456,31.3025128 L20.5094456,31.2971556 Z" id="Shape" fill="#407BFF"></path>
                    <path d="M10.2754096,23.5384615 C10.2133363,23.5389742 10.1521078,23.5223997 10.0971648,23.4901986 L8.2052231,22.3804279 C8.01818347,22.2714836 7.94579081,22.0141578 8.04352956,21.8056745 C8.14126831,21.5971912 8.3721268,21.5164989 8.55916643,21.6254432 L10.4612935,22.7352139 C10.6171291,22.8258004 10.6973917,23.0232282 10.6557597,23.2135563 C10.6141276,23.4038844 10.4613483,23.5379786 10.285595,23.5384615 L10.2754096,23.5384615 Z" id="Path" fill="#407BFF"></path>
                    <path d="M10.9556306,17.6538128 C10.8940694,17.6546919 10.8333046,17.6382003 10.7789615,17.6058644 L8.89365032,16.5030534 C8.76382306,16.4396501 8.67654199,16.3005397 8.6674499,16.1425305 C8.65835782,15.9845213 8.72897672,15.8340638 8.85046811,15.7526 C8.9719595,15.6711362 9.12398589,15.672303 9.24446459,15.755624 L11.1297758,16.8556145 C11.2842337,16.9456329 11.3637868,17.1418226 11.3225228,17.3309571 C11.2812587,17.5200915 11.1298301,17.6533448 10.9556306,17.6538128 L10.9556306,17.6538128 Z" id="Path" fill="#407BFF"></path>
                    <path d="M11.6163664,12.4230769 C11.5552482,12.4222703 11.4951206,12.4057575 11.4406632,12.3748198 L9.538485,11.2649954 C9.41748831,11.1945174 9.33941428,11.05744 9.33367263,10.9053988 C9.32793098,10.7533576 9.39539402,10.6094514 9.51064906,10.5278882 C9.6259041,10.446325 9.77144116,10.4394963 9.89243784,10.5099743 L11.794616,11.6197986 C11.9508797,11.7106329 12.0311049,11.9088471 11.9887884,12.0995447 C11.9464719,12.2902423 11.7926002,12.4239128 11.6163664,12.4230769 L11.6163664,12.4230769 Z" id="Path" fill="#407BFF"></path>
                    <path d="M25.8423584,33.9999348 C25.5793935,33.9999348 25.3202736,33.9376147 25.0871114,33.8177229 L22.7996368,32.6391367 C21.9981684,32.2345221 21.1012153,32.0495073 20.2024567,32.1034157 C17.7797253,32.2373808 15.3653489,31.7227767 13.2150641,30.6141113 L5.60826027,26.6926337 C4.26264312,26.0138056 3.61135136,24.475804 4.06788251,23.0550881 C4.35040059,22.2243375 4.98926717,21.5581866 5.81473066,21.2336367 C5.92519599,21.1885534 6.03865676,21.1509653 6.15432012,21.1211353 C4.84161416,20.3452797 4.30306745,18.7386305 4.88833063,17.3443023 C5.22042348,16.5797546 5.86476887,15.9892018 6.66234594,15.7183891 C6.73569727,15.6942816 6.80904859,15.6701742 6.88239991,15.651424 C5.56872599,14.8763325 5.02990805,13.2688742 5.61641042,11.8745909 C5.94912493,11.1110617 6.59338184,10.5215627 7.39042573,10.2513563 C7.45834363,10.2272489 7.52897823,10.20582 7.59689612,10.1870698 L1.68532289,7.13881734 C0.339705738,6.45998932 -0.311586025,4.92198773 0.144945121,3.50127178 C0.429634813,2.67291385 1.06678475,2.00829583 1.88957595,1.68142841 C2.71236715,1.35456098 3.63886343,1.39799467 4.42648897,1.80035762 L19.9362186,9.80402929 L18.4719088,3.89234811 C18.0821728,2.27572478 19.0285491,0.637603067 20.6376503,0.14357735 C22.2467514,-0.350448366 23.9690628,0.468333656 24.5790856,2.01732463 L29.925582,15.7103533 C30.3479317,16.7899088 31.1542404,17.6810678 32.1940395,18.2175275 L33.1231563,18.6969978 C33.5073264,18.8943532 33.7960209,19.2343654 33.9254913,19.6419541 C34.0549617,20.0495428 34.014558,20.4911806 33.8132021,20.8693464 L27.2930845,33.1534289 C27.0064981,33.6793497 26.4478505,34.0052976 25.8423584,33.9999348 L25.8423584,33.9999348 Z M20.5094456,31.2971556 C21.4371447,31.2921725 22.3523488,31.5081153 23.1772603,31.9266278 L25.4647349,33.105214 C25.6569043,33.2057596 25.8818679,33.2263811 26.0895427,33.1624874 C26.2972176,33.0985938 26.4703651,32.9554887 26.5704382,32.7650311 L33.0905557,20.4809487 C33.1914641,20.2914077 33.2114992,20.0700033 33.1462175,19.8658424 C33.0809357,19.6616816 32.9357334,19.491641 32.7428161,19.3934351 L31.8136993,18.9139648 C30.6022708,18.2876764 29.6635818,17.2478938 29.1730517,15.9889282 L23.8238386,2.29589954 C23.3778894,1.12500778 22.0820654,0.50138012 20.8714794,0.875048526 C19.6608934,1.24871693 18.957067,2.48957143 19.2679065,3.70216716 L20.9468368,10.4763591 C20.9848807,10.6290049 20.9285102,10.7894521 20.8028509,10.8861857 C20.67744,10.9850096 20.504425,11.0008048 20.3627429,10.9263648 L4.06244907,2.52358097 C3.48754262,2.22887483 2.81072784,2.19658514 2.20964901,2.435187 C1.60054877,2.66917069 1.13061523,3.16104035 0.930075941,3.77448949 C0.594917417,4.82371611 1.08032015,5.9578237 2.07652994,6.45309447 L9.81916952,10.4442159 C10.0187228,10.5470309 10.0959588,10.7898795 9.99168092,10.9866334 C9.88740309,11.1833873 9.64109932,11.2595398 9.44154604,11.1567248 C8.8952524,10.8771693 8.25583398,10.8335229 7.67568088,11.0361876 C7.09287522,11.234143 6.62151553,11.6648608 6.3770908,12.2228096 C5.92864467,13.3083792 6.40173194,14.5514703 7.46377706,15.0782025 L9.09380644,15.9139272 L9.09380644,15.9139272 C9.27563437,16.0248721 9.33956494,16.255517 9.24023993,16.4422212 C9.14091492,16.6289254 8.91211987,16.7081814 8.71618297,16.6237576 L8.71618297,16.6237576 C8.1705533,16.3452842 7.53242216,16.3016585 6.95303452,16.5032203 C6.37005199,16.7023656 5.89881263,17.1339454 5.65444444,17.6925209 C5.20767494,18.7773471 5.68051429,20.0186213 6.7411307,20.5452352 L8.37116008,21.38096 L8.37116008,21.38096 C8.57071334,21.483775 8.64794932,21.7266236 8.54367148,21.9233775 C8.43939365,22.1201314 8.19308988,22.1962839 7.99353661,22.0934689 L7.99353661,22.0934689 C7.41784368,21.8010472 6.74167081,21.7697657 6.14073654,22.0077536 C5.53399879,22.2443275 5.06586714,22.7353536 4.86388019,23.347056 L4.86388019,23.347056 C4.52751513,24.3963384 5.01324211,25.5312036 6.01033419,26.025661 L13.617138,29.9471387 C15.6326686,30.9744135 17.8910754,31.4489919 20.1562725,31.3212631 C20.275808,31.3212631 20.3926268,31.3025128 20.5094456,31.3025128 L20.5094456,31.2971556 Z" id="Shape" fill="#000000" opacity="0.3"></path>
                </g>
            </g>
        </g>
    </g>
</svg>