<svg id="eDzkOMPA91g1" xmlns="http://www.w3.org/2000/svg" xmlns:xlink="http://www.w3.org/1999/xlink" viewBox="0 0 545 549" shape-rendering="geometricPrecision" text-rendering="geometricPrecision"><g><g transform="translate(0 0.708061)"><ellipse rx="24.8273" ry="24.8317" transform="matrix(.999391 0.0349-.034899 0.999391 217.010004 26.674117)" fill="#febf10"/><path d="M304.200521,88.524682c.952297-.027721,1.787746-.642753,2.097252-1.543933s.028283-1.899877-.705961-2.507056C282.372169,65.30089,237.35529,54.570106,199.480618,62.640941c-56.5492,12.616495-85.673855,50.064845-98.442828,85.25587-.461939,1.22142.091852,2.592868,1.272319,3.150865s2.591471.115291,3.241742-1.017105c10.930804-18.504694,27.465938-33.049947,47.211742-41.530158c1.267641-.556618,2.133362,1.515271.989395,2.288355-51.663993,35.345402-66.689542,142.49573-21.455927,202.982656c2.597143,3.092381,6.771081,1.267912,5.25607-2.31924-17.685435-41.561486-10.883921-118.252077,23.527708-160.184322c13.294707-15.059731,51.138221-61.692349,143.119682-62.74318Z" transform="matrix(.999391 0.0349-.034899 0.999391 6.67254-6.99293)" fill="#febf10"/><ellipse rx="24.8273" ry="24.8316" transform="matrix(.990268 0.139173-.139173 0.990268 516.499987 196.935897)" fill="#1bbaed"/><path d="M478.481943,277.941695c.226029.945249,1.031576,1.63973,1.999653,1.723948s1.881353-.460732,2.267073-1.352761c12.8304-27.243325,12.087225-73.535887-5.10417-108.232524-26.250857-51.673885-69.722369-70.631085-106.978937-74.219132-1.351446-.251338-2.652802.633782-2.915819,1.983202s.610621,2.658719,1.957475,2.933618c20.628963,5.997211,38.812078,18.410447,51.912597,35.439656.865738,1.113269-.927487,2.442937-1.97873,1.546128-47.058577-41.315009-154.591923-29.319319-201.926304,29.465172-2.44246,3.308759.433024,6.865037,3.555708,4.514924c35.895403-27.428299,111.861216-39.826772,161.021783-16.849371c17.840047,9.061036,72.41136,34.203218,96.189671,123.04714Z" transform="matrix(.990268 0.139173-.139173 0.990268 29.5761-47.4652)" fill="#1bbaed"/><ellipse rx="24.8287" ry="24.8302" transform="matrix(.819152-.573576 0.573576 0.819152 349.733443 512.959425)" fill="#fff"/><path d="M220.167602,388.540517c-.828058-.395451-1.813177-.250128-2.491956.367608s-.916079,1.584901-.600275,2.446538c10.726864,28.13797,44.581561,59.706326,81.499,71.391685c55.407127,16.940521,99.253138-1.245192,127.701527-25.552138.917331-.862837,1.062563-2.268102.341057-3.30006s-2.09109-1.377861-3.216268-.812303c-18.633939,10.689648-40.18029,15.184984-61.531772,12.837718-1.391382-.185414-1.112919-2.380888.247569-2.504689c62.396897-5.261942,128.325412-91.013714,118.870187-165.936527-.710819-4.050701-5.25602-4.421382-5.720141-.587035-5.136474,44.898934-48.924428,108.230521-99.542016,127.715519-19.109075,6.526109-75.045096,28.423456-155.556912-16.066316Z" transform="matrix(.819152-.573576 0.573576 0.819152-150.057 267.654)" fill="#fff"/><ellipse rx="24.8276" ry="24.8314" transform="matrix(.961262-.275637 0.275637 0.961262 30.709215 347.775081)" fill="#5fad46"/><path d="M113.963348,228.484887c.169901-.938542-.260054-1.884001-1.078983-2.372655s-1.855069-.418011-2.600221.17728c-23.49899,18.833358-43.288845,60.766193-42.950571,99.482061.893899,57.950091,31.625234,94.066972,63.501334,113.701716c1.101351.853869,2.686351.653045,3.540195-.448554s.6532-2.686819-.448151-3.540689c-15.904529-14.448471-26.797507-33.585533-31.101482-54.639877-.278203-1.360609,1.917035-1.793638,2.473507-.494889c24.14466,57.763453,125.957733,94.186206,194.351084,62.17743c3.64848-1.917413,2.628378-6.37031-1.205557-5.627971-44.306707,8.907984-117.984568-13.322336-152.054812-55.654627-11.964726-15.955822-50.085104-62.462558-32.426343-152.759225Z" transform="matrix(.961262-.275637 0.275637 0.961262-86.5971 64.0643)" fill="#5fad46"/></g></g></svg>