<?xml version="1.0" encoding="UTF-8"?>
<svg width="545px" height="549px" viewBox="0 0 545 549" version="1.1" xmlns="http://www.w3.org/2000/svg" xmlns:xlink="http://www.w3.org/1999/xlink">
    <title>Open Logo@3x</title>
    <g id="Page-1" stroke="none" stroke-width="1" fill="none" fill-rule="evenodd">
        <g id="Open-Logo" transform="translate(0.000000, 0.708061)" fill-rule="nonzero">
            <ellipse id="Oval" fill="#FEBF10" transform="translate(217.009593, 26.673970) rotate(2.000000) translate(-217.009593, -26.673970) " cx="217.009593" cy="26.6739701" rx="24.8272668" ry="24.831685"></ellipse>
            <path d="M304.200521,88.5246817 C305.152818,88.4969614 305.988267,87.8819289 306.297773,86.9807486 C306.607278,86.0795683 306.326056,85.0808719 305.591812,84.4736932 C282.372169,65.3008904 237.35529,54.5701063 199.480618,62.6409414 C142.931418,75.2574357 113.806763,112.705786 101.03779,147.896811 C100.575851,149.118231 101.129642,150.489679 102.310109,151.047676 C103.490576,151.605673 104.90158,151.162967 105.551851,150.030571 C116.482655,131.525877 133.017789,116.980624 152.763593,108.500413 C154.031234,107.943795 154.896955,110.015684 153.752988,110.788768 C102.088995,146.13417 87.0634457,253.284498 132.297061,313.771424 C134.894204,316.863805 139.068142,315.039336 137.553131,311.452184 C119.867696,269.890698 126.66921,193.200107 161.080839,151.267862 C174.375546,136.208131 212.21906,89.5755133 304.200521,88.5246817 Z" id="Path" fill="#FEBF10" transform="translate(203.648658, 187.638391) rotate(2.000000) translate(-203.648658, -187.638391) "></path>
            <ellipse id="Oval" fill="#1BBAED" transform="translate(516.500388, 196.935993) rotate(8.000000) translate(-516.500388, -196.935993) " cx="516.500388" cy="196.935993" rx="24.8273472" ry="24.8316046"></ellipse>
            <path d="M478.481943,277.941695 C478.707972,278.886944 479.513519,279.581425 480.481596,279.665643 C481.449674,279.749862 482.362949,279.204911 482.748669,278.312882 C495.579069,251.069557 494.835894,204.776995 477.644499,170.080358 C451.393642,118.406473 407.92213,99.4492732 370.665562,95.8612263 C369.314116,95.6098875 368.01276,96.4950075 367.749743,97.8444275 C367.486726,99.1938475 368.360364,100.503147 369.707218,100.778046 C390.336181,106.775257 408.519296,119.188493 421.619815,136.217702 C422.485553,137.330971 420.692328,138.660639 419.641085,137.76383 C372.582508,96.4488207 265.049162,108.444511 217.714781,167.229002 C215.272321,170.537761 218.147805,174.094039 221.270489,171.743926 C257.165892,144.315627 333.131705,131.917154 382.292272,154.894555 C400.132319,163.955591 454.703632,189.097773 478.481943,277.941695 Z" id="Path" fill="#1BBAED" transform="translate(354.180403, 187.746382) rotate(8.000000) translate(-354.180403, -187.746382) "></path>
            <ellipse id="Oval" fill="#263475" transform="translate(349.733755, 512.958980) rotate(-35.000000) translate(-349.733755, -512.958980) " cx="349.733755" cy="512.95898" rx="24.8287185" ry="24.8302333"></ellipse>
            <path d="M220.167602,388.540517 C219.339544,388.145066 218.354425,388.290389 217.675646,388.908125 C216.996868,389.525861 216.759567,390.493026 217.075371,391.354663 C227.802235,419.492633 261.656932,451.060989 298.574371,462.746348 C353.981498,479.686869 397.827509,461.501156 426.275898,437.19421 C427.193229,436.331373 427.338461,434.926108 426.616955,433.89415 C425.895449,432.862193 424.525865,432.516289 423.400687,433.081847 C404.766748,443.771495 383.220397,448.266831 361.868915,445.919565 C360.477533,445.734151 360.755996,443.538677 362.116484,443.414876 C424.513381,438.152934 490.441896,352.401162 480.986671,277.478349 C480.275852,273.427648 475.730651,273.056967 475.26653,276.891314 C470.130056,321.790248 426.342102,385.121835 375.724514,404.606833 C356.615439,411.132942 300.679418,433.030289 220.167602,388.540517 Z" id="Path" fill="#263475" transform="translate(349.417022, 371.787112) rotate(-35.000000) translate(-349.417022, -371.787112) "></path>
            <ellipse id="Oval" fill="#5FAD46" transform="translate(30.709416, 347.775249) rotate(-16.000000) translate(-30.709416, -347.775249) " cx="30.7094156" cy="347.775249" rx="24.8275979" ry="24.8313539"></ellipse>
            <path d="M113.963348,228.484887 C114.133249,227.546345 113.703294,226.600886 112.884365,226.112232 C112.065435,225.623578 111.029296,225.694221 110.284144,226.289512 C86.785154,245.12287 66.9952985,287.055705 67.3335729,325.771573 C68.2274723,383.721664 98.9588068,419.838545 130.834907,439.473289 C131.936258,440.327158 133.521258,440.126334 134.375102,439.024735 C135.228946,437.923136 135.028302,436.337916 133.926951,435.484046 C118.022422,421.035575 107.129444,401.898513 102.825469,380.844169 C102.547266,379.48356 104.742504,379.050531 105.298976,380.34928 C129.443636,438.112733 231.256709,474.535486 299.65006,442.52671 C303.29854,440.609297 302.278438,436.1564 298.444503,436.898739 C254.137796,445.806723 180.459935,423.576403 146.389691,381.244112 C134.424965,365.28829 96.3045872,318.781554 113.963348,228.484887 Z" id="Path" fill="#5FAD46" transform="translate(184.621905, 340.117222) rotate(-16.000000) translate(-184.621905, -340.117222) "></path>
        </g>
    </g>
</svg>